<svg width="181" height="134" viewBox="0 0 181 134" fill="none" xmlns="http://www.w3.org/2000/svg">
<path d="M37.6826 100.743C35.51 108.747 31.3145 115.714 25.5919 116.913C19.868 118.069 12.5956 113.478 7.61221 107.811C2.62755 102.1 -0.024231 95.3153 1.27737 89.7022C2.60154 84.1121 7.90038 79.6724 15.0577 77.3793C22.1924 75.0632 31.1842 74.8497 35.584 79.2844C40.005 83.6982 39.8552 92.7391 37.6826 100.743Z" fill="#6BB54B"/>
<path d="M165.497 45.0509C173.561 70.8749 160.697 102.459 137.657 118.875C114.617 135.387 81.4009 136.827 61.5289 121.851C41.6569 106.971 35.1289 75.6749 43.6729 49.1789C52.2169 22.6829 75.9289 0.890887 102.233 0.0268872C128.537 -0.837113 157.433 19.2269 165.497 45.0509Z" fill="#DE2121"/>
<path d="M65.9325 79V69.5455H69.5518C70.2351 69.5455 70.8029 69.6532 71.2553 69.8686C71.7108 70.081 72.0509 70.3718 72.2756 70.7411C72.5033 71.1104 72.6172 71.529 72.6172 71.9968C72.6172 72.3815 72.5433 72.7108 72.3956 72.9847C72.2479 73.2556 72.0494 73.4756 71.8001 73.6449C71.5508 73.8142 71.2723 73.9357 70.9645 74.0096V74.1019C71.3 74.1204 71.6216 74.2235 71.9293 74.4112C72.2402 74.5959 72.4941 74.8575 72.6911 75.196C72.888 75.5346 72.9865 75.9439 72.9865 76.424C72.9865 76.9134 72.868 77.3535 72.631 77.7443C72.3941 78.1321 72.0371 78.4383 71.56 78.663C71.083 78.8877 70.4828 79 69.7596 79H65.9325ZM67.6452 77.5689H69.4872C70.1089 77.5689 70.5567 77.4504 70.8306 77.2134C71.1076 76.9734 71.2461 76.6656 71.2461 76.2901C71.2461 76.0101 71.1768 75.7577 71.0384 75.533C70.8999 75.3053 70.7029 75.1268 70.4474 74.9975C70.192 74.8652 69.8873 74.799 69.5334 74.799H67.6452V77.5689ZM67.6452 73.5664H69.3395C69.6349 73.5664 69.9012 73.5125 70.1381 73.4048C70.3751 73.294 70.5613 73.1386 70.6967 72.9386C70.8352 72.7354 70.9045 72.4954 70.9045 72.2184C70.9045 71.8522 70.7752 71.5505 70.5167 71.3136C70.2612 71.0766 69.8812 70.9581 69.3764 70.9581H67.6452V73.5664ZM77.4956 79.1385C76.8032 79.1385 76.203 78.9862 75.6952 78.6815C75.1874 78.3768 74.7935 77.9505 74.5134 77.4027C74.2364 76.8549 74.0979 76.2147 74.0979 75.4822C74.0979 74.7498 74.2364 74.1081 74.5134 73.5572C74.7935 73.0063 75.1874 72.5785 75.6952 72.2738C76.203 71.9691 76.8032 71.8168 77.4956 71.8168C78.1881 71.8168 78.7883 71.9691 79.2961 72.2738C79.8039 72.5785 80.1963 73.0063 80.4733 73.5572C80.7533 74.1081 80.8934 74.7498 80.8934 75.4822C80.8934 76.2147 80.7533 76.8549 80.4733 77.4027C80.1963 77.9505 79.8039 78.3768 79.2961 78.6815C78.7883 78.9862 78.1881 79.1385 77.4956 79.1385ZM77.5049 77.7997C77.8804 77.7997 78.1943 77.6966 78.4466 77.4904C78.699 77.2811 78.8867 77.0011 79.0099 76.6502C79.136 76.2994 79.1991 75.9085 79.1991 75.4776C79.1991 75.0437 79.136 74.6513 79.0099 74.3004C78.8867 73.9465 78.699 73.6649 78.4466 73.4556C78.1943 73.2463 77.8804 73.1417 77.5049 73.1417C77.1202 73.1417 76.8001 73.2463 76.5447 73.4556C76.2923 73.6649 76.103 73.9465 75.9768 74.3004C75.8537 74.6513 75.7922 75.0437 75.7922 75.4776C75.7922 75.9085 75.8537 76.2994 75.9768 76.6502C76.103 77.0011 76.2923 77.2811 76.5447 77.4904C76.8001 77.6966 77.1202 77.7997 77.5049 77.7997ZM85.4048 79.1385C84.7124 79.1385 84.1122 78.9862 83.6044 78.6815C83.0966 78.3768 82.7027 77.9505 82.4226 77.4027C82.1456 76.8549 82.0071 76.2147 82.0071 75.4822C82.0071 74.7498 82.1456 74.1081 82.4226 73.5572C82.7027 73.0063 83.0966 72.5785 83.6044 72.2738C84.1122 71.9691 84.7124 71.8168 85.4048 71.8168C86.0973 71.8168 86.6974 71.9691 87.2053 72.2738C87.7131 72.5785 88.1055 73.0063 88.3825 73.5572C88.6625 74.1081 88.8026 74.7498 88.8026 75.4822C88.8026 76.2147 88.6625 76.8549 88.3825 77.4027C88.1055 77.9505 87.7131 78.3768 87.2053 78.6815C86.6974 78.9862 86.0973 79.1385 85.4048 79.1385ZM85.4141 77.7997C85.7895 77.7997 86.1035 77.6966 86.3558 77.4904C86.6082 77.2811 86.7959 77.0011 86.919 76.6502C87.0452 76.2994 87.1083 75.9085 87.1083 75.4776C87.1083 75.0437 87.0452 74.6513 86.919 74.3004C86.7959 73.9465 86.6082 73.6649 86.3558 73.4556C86.1035 73.2463 85.7895 73.1417 85.4141 73.1417C85.0294 73.1417 84.7093 73.2463 84.4538 73.4556C84.2015 73.6649 84.0122 73.9465 83.886 74.3004C83.7629 74.6513 83.7013 75.0437 83.7013 75.4776C83.7013 75.9085 83.7629 76.2994 83.886 76.6502C84.0122 77.0011 84.2015 77.2811 84.4538 77.4904C84.7093 77.6966 85.0294 77.7997 85.4141 77.7997ZM91.7444 76.7749L91.7398 74.7575H92.0075L94.5558 71.9091H96.5086L93.374 75.3991H93.0278L91.7444 76.7749ZM90.221 79V69.5455H91.8921V79H90.221ZM94.6713 79L92.363 75.7731L93.4894 74.5959L96.6702 79H94.6713ZM102.887 79.1431C102.438 79.1431 102.033 79.0631 101.673 78.9031C101.316 78.7399 101.033 78.4999 100.824 78.1829C100.618 77.8659 100.515 77.475 100.515 77.0103C100.515 76.6102 100.588 76.2794 100.736 76.0178C100.884 75.7562 101.085 75.5469 101.341 75.3899C101.596 75.233 101.884 75.1145 102.204 75.0344C102.527 74.9513 102.861 74.8913 103.206 74.8544C103.621 74.8113 103.958 74.7728 104.217 74.739C104.475 74.7021 104.663 74.6467 104.78 74.5728C104.9 74.4959 104.96 74.3774 104.96 74.2173V74.1896C104.96 73.8419 104.857 73.5726 104.651 73.3817C104.445 73.1909 104.148 73.0955 103.76 73.0955C103.351 73.0955 103.026 73.1848 102.786 73.3633C102.549 73.5418 102.389 73.7526 102.306 73.9957L100.745 73.7741C100.868 73.3433 101.072 72.9832 101.355 72.6939C101.638 72.4015 101.984 72.183 102.393 72.0384C102.803 71.8906 103.255 71.8168 103.751 71.8168C104.092 71.8168 104.432 71.8568 104.771 71.9368C105.109 72.0168 105.419 72.1491 105.699 72.3338C105.979 72.5154 106.204 72.7631 106.373 73.0771C106.545 73.391 106.631 73.7834 106.631 74.2543V79H105.025V78.0259H104.969C104.868 78.2229 104.725 78.4076 104.54 78.5799C104.359 78.7492 104.129 78.8861 103.852 78.9908C103.578 79.0923 103.257 79.1431 102.887 79.1431ZM103.321 77.9151C103.657 77.9151 103.948 77.849 104.194 77.7166C104.44 77.5812 104.629 77.4027 104.762 77.1811C104.897 76.9595 104.965 76.7179 104.965 76.4563V75.6207C104.913 75.6638 104.823 75.7038 104.697 75.7408C104.574 75.7777 104.435 75.81 104.282 75.8377C104.128 75.8654 103.975 75.89 103.825 75.9116C103.674 75.9331 103.543 75.9516 103.432 75.967C103.183 76.0008 102.96 76.0562 102.763 76.1332C102.566 76.2101 102.41 76.3178 102.297 76.4563C102.183 76.5917 102.126 76.7672 102.126 76.9826C102.126 77.2904 102.238 77.5227 102.463 77.6797C102.687 77.8366 102.974 77.9151 103.321 77.9151ZM115.077 71.9091V73.2017H111.001V71.9091H115.077ZM112.007 70.2102H113.678V76.8672C113.678 77.0919 113.712 77.2642 113.78 77.3842C113.851 77.5012 113.943 77.5812 114.057 77.6243C114.171 77.6674 114.297 77.6889 114.436 77.6889C114.54 77.6889 114.636 77.6812 114.722 77.6658C114.811 77.6504 114.879 77.6366 114.925 77.6243L115.206 78.9308C115.117 78.9615 114.99 78.9954 114.823 79.0323C114.66 79.0692 114.46 79.0908 114.223 79.0969C113.805 79.1093 113.428 79.0462 113.092 78.9077C112.757 78.7661 112.49 78.5476 112.294 78.2521C112.1 77.9567 112.004 77.5874 112.007 77.1442V70.2102ZM118.515 79.1431C118.066 79.1431 117.661 79.0631 117.301 78.9031C116.944 78.7399 116.661 78.4999 116.452 78.1829C116.246 77.8659 116.142 77.475 116.142 77.0103C116.142 76.6102 116.216 76.2794 116.364 76.0178C116.512 75.7562 116.713 75.5469 116.969 75.3899C117.224 75.233 117.512 75.1145 117.832 75.0344C118.155 74.9513 118.489 74.8913 118.834 74.8544C119.249 74.8113 119.586 74.7728 119.845 74.739C120.103 74.7021 120.291 74.6467 120.408 74.5728C120.528 74.4959 120.588 74.3774 120.588 74.2173V74.1896C120.588 73.8419 120.485 73.5726 120.279 73.3817C120.073 73.1909 119.776 73.0955 119.388 73.0955C118.979 73.0955 118.654 73.1848 118.414 73.3633C118.177 73.5418 118.017 73.7526 117.934 73.9957L116.373 73.7741C116.496 73.3433 116.7 72.9832 116.983 72.6939C117.266 72.4015 117.612 72.183 118.021 72.0384C118.431 71.8906 118.883 71.8168 119.379 71.8168C119.72 71.8168 120.06 71.8568 120.399 71.9368C120.737 72.0168 121.047 72.1491 121.327 72.3338C121.607 72.5154 121.832 72.7631 122.001 73.0771C122.173 73.391 122.259 73.7834 122.259 74.2543V79H120.653V78.0259H120.597C120.496 78.2229 120.353 78.4076 120.168 78.5799C119.986 78.7492 119.757 78.8861 119.48 78.9908C119.206 79.0923 118.885 79.1431 118.515 79.1431ZM118.949 77.9151C119.285 77.9151 119.576 77.849 119.822 77.7166C120.068 77.5812 120.257 77.4027 120.39 77.1811C120.525 76.9595 120.593 76.7179 120.593 76.4563V75.6207C120.54 75.6638 120.451 75.7038 120.325 75.7408C120.202 75.7777 120.063 75.81 119.91 75.8377C119.756 75.8654 119.603 75.89 119.453 75.9116C119.302 75.9331 119.171 75.9516 119.06 75.967C118.811 76.0008 118.588 76.0562 118.391 76.1332C118.194 76.2101 118.038 76.3178 117.924 76.4563C117.811 76.5917 117.754 76.7672 117.754 76.9826C117.754 77.2904 117.866 77.5227 118.091 77.6797C118.315 77.8366 118.602 77.9151 118.949 77.9151ZM124.014 79V69.5455H125.685V73.0817H125.754C125.84 72.9093 125.962 72.7262 126.119 72.5323C126.276 72.3353 126.488 72.1676 126.756 72.0291C127.024 71.8875 127.365 71.8168 127.781 71.8168C128.328 71.8168 128.822 71.9568 129.263 72.2369C129.706 72.5138 130.057 72.9247 130.315 73.4695C130.577 74.0111 130.707 74.6759 130.707 75.4638C130.707 76.2424 130.58 76.9041 130.324 77.4489C130.069 77.9936 129.721 78.4091 129.281 78.6953C128.841 78.9815 128.342 79.1246 127.785 79.1246C127.379 79.1246 127.042 79.0569 126.774 78.9215C126.506 78.7861 126.291 78.623 126.128 78.4322C125.968 78.2383 125.843 78.0552 125.754 77.8828H125.657V79H124.014ZM125.652 75.4545C125.652 75.9131 125.717 76.3147 125.846 76.6594C125.979 77.0041 126.168 77.2734 126.414 77.4673C126.663 77.6581 126.965 77.7536 127.319 77.7536C127.688 77.7536 127.998 77.6551 128.247 77.4581C128.496 77.258 128.684 76.9857 128.81 76.641C128.939 76.2932 129.004 75.8977 129.004 75.4545C129.004 75.0144 128.941 74.6236 128.815 74.282C128.689 73.9403 128.501 73.6726 128.252 73.4787C128.002 73.2848 127.691 73.1879 127.319 73.1879C126.962 73.1879 126.659 73.2817 126.41 73.4695C126.16 73.6572 125.971 73.9203 125.842 74.2589C125.716 74.5974 125.652 74.996 125.652 75.4545ZM133.799 69.5455V79H132.128V69.5455H133.799ZM138.657 79.1385C137.946 79.1385 137.332 78.9908 136.815 78.6953C136.301 78.3968 135.906 77.9751 135.629 77.4304C135.352 76.8826 135.213 76.2378 135.213 75.4961C135.213 74.7667 135.352 74.1265 135.629 73.5756C135.909 73.0217 136.3 72.5908 136.801 72.283C137.303 71.9722 137.892 71.8168 138.569 71.8168C139.006 71.8168 139.419 71.8875 139.807 72.0291C140.197 72.1676 140.542 72.383 140.841 72.6754C141.142 72.9678 141.379 73.3402 141.552 73.7926C141.724 74.242 141.81 74.7775 141.81 75.3991V75.9116H135.998V74.7852H140.208C140.205 74.4651 140.136 74.1804 140 73.9311C139.865 73.6787 139.676 73.4802 139.433 73.3356C139.193 73.1909 138.912 73.1186 138.592 73.1186C138.251 73.1186 137.951 73.2017 137.692 73.3679C137.434 73.531 137.232 73.7464 137.087 74.0142C136.946 74.2789 136.874 74.5697 136.87 74.8867V75.87C136.87 76.2824 136.946 76.6364 137.097 76.9318C137.247 77.2242 137.458 77.4489 137.729 77.6058C138 77.7597 138.317 77.8366 138.68 77.8366C138.923 77.8366 139.143 77.8028 139.34 77.7351C139.537 77.6643 139.708 77.5612 139.853 77.4258C139.997 77.2904 140.107 77.1226 140.18 76.9226L141.741 77.098C141.642 77.5104 141.455 77.8705 141.178 78.1783C140.904 78.483 140.553 78.7199 140.125 78.8892C139.697 79.0554 139.208 79.1385 138.657 79.1385Z" fill="white"/>
<path d="M61.669 61.277C60.4995 61.277 59.4957 60.9811 58.6577 60.3892C57.8243 59.7926 57.1828 58.9332 56.733 57.8111C56.2879 56.6842 56.0653 55.3277 56.0653 53.7415C56.0701 52.1553 56.295 50.8059 56.7401 49.6932C57.1899 48.5758 57.8314 47.7235 58.6648 47.1364C59.5028 46.5492 60.5043 46.2557 61.669 46.2557C62.8338 46.2557 63.8352 46.5492 64.6733 47.1364C65.5114 47.7235 66.1529 48.5758 66.598 49.6932C67.0478 50.8106 67.2727 52.16 67.2727 53.7415C67.2727 55.3324 67.0478 56.6913 66.598 57.8182C66.1529 58.9403 65.5114 59.7973 64.6733 60.3892C63.84 60.9811 62.8385 61.277 61.669 61.277ZM61.669 59.054C62.5781 59.054 63.2955 58.6065 63.821 57.7116C64.3513 56.812 64.6165 55.4886 64.6165 53.7415C64.6165 52.5862 64.4957 51.6155 64.2543 50.8295C64.0128 50.0436 63.6719 49.4517 63.2315 49.054C62.7912 48.6515 62.2704 48.4503 61.669 48.4503C60.7647 48.4503 60.0497 48.9001 59.5241 49.7997C58.9986 50.6946 58.7334 52.0085 58.7287 53.7415C58.724 54.9015 58.84 55.8769 59.0767 56.6676C59.3182 57.4583 59.6591 58.0549 60.0994 58.4574C60.5398 58.8551 61.063 59.054 61.669 59.054ZM74.8526 61.1989C73.8299 61.1989 72.9208 61.0237 72.1254 60.6733C71.3346 60.3229 70.7096 59.8352 70.2504 59.2102C69.7911 58.5852 69.5472 57.8632 69.5188 57.044H72.1893C72.2129 57.437 72.3432 57.7803 72.5799 58.0739C72.8166 58.3627 73.1315 58.5876 73.5245 58.7486C73.9175 58.9096 74.3578 58.9901 74.8455 58.9901C75.3664 58.9901 75.828 58.9001 76.2305 58.7202C76.6329 58.5355 76.9478 58.2798 77.1751 57.9531C77.4023 57.6264 77.5136 57.25 77.5089 56.8239C77.5136 56.3835 77.4 55.9953 77.168 55.6591C76.936 55.3229 76.5998 55.0601 76.1594 54.8707C75.7238 54.6813 75.1983 54.5866 74.5827 54.5866H73.2972V52.5554H74.5827C75.0894 52.5554 75.5321 52.4678 75.9109 52.2926C76.2944 52.1174 76.5951 51.8712 76.8129 51.554C77.0307 51.232 77.1372 50.8603 77.1325 50.4389C77.1372 50.027 77.0449 49.6695 76.8555 49.3665C76.6708 49.0587 76.408 48.8196 76.0671 48.6491C75.7309 48.4787 75.3356 48.3935 74.881 48.3935C74.436 48.3935 74.024 48.474 73.6452 48.6349C73.2665 48.7959 72.9611 49.0256 72.729 49.3239C72.497 49.6174 72.3739 49.9678 72.3597 50.375H69.8242C69.8432 49.5606 70.0775 48.8456 70.5273 48.2301C70.9819 47.6098 71.5879 47.1269 72.3455 46.7812C73.1031 46.4309 73.953 46.2557 74.8952 46.2557C75.8659 46.2557 76.7087 46.438 77.4237 46.8026C78.1433 47.1624 78.6997 47.6477 79.0927 48.2585C79.4857 48.8693 79.6822 49.544 79.6822 50.2827C79.6869 51.1018 79.4454 51.7884 78.9577 52.3423C78.4748 52.8963 77.8403 53.2585 77.0543 53.429V53.5426C78.0771 53.6847 78.8607 54.0634 79.4052 54.679C79.9544 55.2898 80.2267 56.0497 80.2219 56.9588C80.2219 57.7732 79.9899 58.5024 79.5259 59.1463C79.0666 59.7855 78.4322 60.2874 77.6225 60.652C76.8176 61.0166 75.8943 61.1989 74.8526 61.1989ZM87.7166 61.1989C86.7696 61.1989 85.9221 61.0213 85.174 60.6662C84.4259 60.3063 83.8317 59.8139 83.3913 59.1889C82.9557 58.5639 82.7237 57.849 82.6953 57.044H85.2521C85.2995 57.6406 85.5575 58.1283 86.0263 58.5071C86.495 58.8812 87.0585 59.0682 87.7166 59.0682C88.2327 59.0682 88.692 58.9498 89.0945 58.7131C89.4969 58.4763 89.8142 58.1473 90.0462 57.7259C90.2782 57.3045 90.3918 56.8239 90.3871 56.2841C90.3918 55.7348 90.2758 55.2472 90.0391 54.821C89.8023 54.3949 89.478 54.0611 89.0661 53.8196C88.6541 53.5734 88.1806 53.4503 87.6456 53.4503C87.21 53.4455 86.7815 53.526 86.3601 53.6918C85.9387 53.8575 85.6049 54.0753 85.3587 54.3452L82.9794 53.9545L83.7393 46.4545H92.1768V48.6562H85.9197L85.5007 52.5128H85.5859C85.8558 52.1955 86.237 51.9328 86.7294 51.7244C87.2218 51.5114 87.7616 51.4048 88.3487 51.4048C89.2294 51.4048 90.0154 51.6132 90.7067 52.0298C91.398 52.4418 91.9425 53.0099 92.3402 53.7344C92.7379 54.4588 92.9368 55.2874 92.9368 56.2202C92.9368 57.1813 92.7143 58.0384 92.2692 58.7912C91.8288 59.5393 91.2157 60.1288 90.4297 60.5597C89.6484 60.9858 88.7441 61.1989 87.7166 61.1989ZM101.957 52.669V54.7855H95.4084V52.669H101.957ZM109.716 61.1989C108.693 61.1989 107.784 61.0237 106.989 60.6733C106.198 60.3229 105.573 59.8352 105.114 59.2102C104.654 58.5852 104.411 57.8632 104.382 57.044H107.053C107.076 57.437 107.206 57.7803 107.443 58.0739C107.68 58.3627 107.995 58.5876 108.388 58.7486C108.781 58.9096 109.221 58.9901 109.709 58.9901C110.23 58.9901 110.691 58.9001 111.094 58.7202C111.496 58.5355 111.811 58.2798 112.038 57.9531C112.266 57.6264 112.377 57.25 112.372 56.8239C112.377 56.3835 112.263 55.9953 112.031 55.6591C111.799 55.3229 111.463 55.0601 111.023 54.8707C110.587 54.6813 110.062 54.5866 109.446 54.5866H108.161V52.5554H109.446C109.953 52.5554 110.395 52.4678 110.774 52.2926C111.158 52.1174 111.458 51.8712 111.676 51.554C111.894 51.232 112 50.8603 111.996 50.4389C112 50.027 111.908 49.6695 111.719 49.3665C111.534 49.0587 111.271 48.8196 110.93 48.6491C110.594 48.4787 110.199 48.3935 109.744 48.3935C109.299 48.3935 108.887 48.474 108.509 48.6349C108.13 48.7959 107.824 49.0256 107.592 49.3239C107.36 49.6174 107.237 49.9678 107.223 50.375H104.688C104.706 49.5606 104.941 48.8456 105.391 48.2301C105.845 47.6098 106.451 47.1269 107.209 46.7812C107.966 46.4309 108.816 46.2557 109.759 46.2557C110.729 46.2557 111.572 46.438 112.287 46.8026C113.007 47.1624 113.563 47.6477 113.956 48.2585C114.349 48.8693 114.545 49.544 114.545 50.2827C114.55 51.1018 114.309 51.7884 113.821 52.3423C113.338 52.8963 112.704 53.2585 111.918 53.429V53.5426C112.94 53.6847 113.724 54.0634 114.268 54.679C114.818 55.2898 115.09 56.0497 115.085 56.9588C115.085 57.7732 114.853 58.5024 114.389 59.1463C113.93 59.7855 113.295 60.2874 112.486 60.652C111.681 61.0166 110.758 61.1989 109.716 61.1989ZM122.743 61.1989C121.721 61.1989 120.811 61.0237 120.016 60.6733C119.225 60.3229 118.6 59.8352 118.141 59.2102C117.682 58.5852 117.438 57.8632 117.409 57.044H120.08C120.104 57.437 120.234 57.7803 120.471 58.0739C120.707 58.3627 121.022 58.5876 121.415 58.7486C121.808 58.9096 122.248 58.9901 122.736 58.9901C123.257 58.9901 123.719 58.9001 124.121 58.7202C124.524 58.5355 124.838 58.2798 125.066 57.9531C125.293 57.6264 125.404 57.25 125.4 56.8239C125.404 56.3835 125.291 55.9953 125.059 55.6591C124.827 55.3229 124.49 55.0601 124.05 54.8707C123.614 54.6813 123.089 54.5866 122.473 54.5866H121.188V52.5554H122.473C122.98 52.5554 123.423 52.4678 123.801 52.2926C124.185 52.1174 124.486 51.8712 124.703 51.554C124.921 51.232 125.028 50.8603 125.023 50.4389C125.028 50.027 124.935 49.6695 124.746 49.3665C124.561 49.0587 124.299 48.8196 123.958 48.6491C123.622 48.4787 123.226 48.3935 122.772 48.3935C122.327 48.3935 121.915 48.474 121.536 48.6349C121.157 48.7959 120.852 49.0256 120.62 49.3239C120.388 49.6174 120.265 49.9678 120.25 50.375H117.715C117.734 49.5606 117.968 48.8456 118.418 48.2301C118.873 47.6098 119.479 47.1269 120.236 46.7812C120.994 46.4309 121.844 46.2557 122.786 46.2557C123.757 46.2557 124.599 46.438 125.314 46.8026C126.034 47.1624 126.59 47.6477 126.983 48.2585C127.376 48.8693 127.573 49.544 127.573 50.2827C127.578 51.1018 127.336 51.7884 126.848 52.3423C126.365 52.8963 125.731 53.2585 124.945 53.429V53.5426C125.968 53.6847 126.751 54.0634 127.296 54.679C127.845 55.2898 128.117 56.0497 128.113 56.9588C128.113 57.7732 127.881 58.5024 127.417 59.1463C126.957 59.7855 126.323 60.2874 125.513 60.652C124.708 61.0166 123.785 61.1989 122.743 61.1989ZM136.467 46.4545V61H133.832V49.0185H133.746L130.344 51.1918V48.777L133.96 46.4545H136.467ZM145.536 61.277C144.367 61.277 143.363 60.9811 142.525 60.3892C141.692 59.7926 141.05 58.9332 140.6 57.8111C140.155 56.6842 139.933 55.3277 139.933 53.7415C139.937 52.1553 140.162 50.8059 140.607 49.6932C141.057 48.5758 141.699 47.7235 142.532 47.1364C143.37 46.5492 144.371 46.2557 145.536 46.2557C146.701 46.2557 147.702 46.5492 148.54 47.1364C149.379 47.7235 150.02 48.5758 150.465 49.6932C150.915 50.8106 151.14 52.16 151.14 53.7415C151.14 55.3324 150.915 56.6913 150.465 57.8182C150.02 58.9403 149.379 59.7973 148.54 60.3892C147.707 60.9811 146.706 61.277 145.536 61.277ZM145.536 59.054C146.445 59.054 147.163 58.6065 147.688 57.7116C148.219 56.812 148.484 55.4886 148.484 53.7415C148.484 52.5862 148.363 51.6155 148.121 50.8295C147.88 50.0436 147.539 49.4517 147.099 49.054C146.658 48.6515 146.138 48.4503 145.536 48.4503C144.632 48.4503 143.917 48.9001 143.391 49.7997C142.866 50.6946 142.601 52.0085 142.596 53.7415C142.591 54.9015 142.707 55.8769 142.944 56.6676C143.185 57.4583 143.526 58.0549 143.967 58.4574C144.407 58.8551 144.93 59.054 145.536 59.054Z" fill="white"/>
<path d="M178.683 116.743C176.51 124.747 172.315 131.714 166.592 132.913C160.868 134.069 153.596 129.478 148.612 123.811C143.628 118.1 140.976 111.315 142.277 105.702C143.602 100.112 148.9 95.6724 156.058 93.3793C163.192 91.0632 172.184 90.8497 176.584 95.2844C181.005 99.6982 180.855 108.739 178.683 116.743Z" fill="#FCCF3F"/>
</svg>
