<svg width="378" height="378" viewBox="0 0 378 378" fill="none" xmlns="http://www.w3.org/2000/svg">
<path fill-rule="evenodd" clip-rule="evenodd" d="M166 1.49001C151.102 4.04101 138.853 8.03701 125.719 14.63C84.359 35.39 56.129 73.513 48.199 119.314L46.5 129.127L39.915 131.901C25.034 138.168 13.697 148.687 6.936 162.5C1.723 173.15 0 180.477 0 192C0 217.758 13.641 239.238 37.155 250.507C41.164 252.428 44.992 254 45.663 254C46.333 254 47.217 254.543 47.627 255.206C48.037 255.869 52.498 283.081 57.54 315.677C62.648 348.703 67.269 375.619 67.976 376.471C69.102 377.827 82.761 378 189 378C295.238 378 308.898 377.827 310.024 376.471C310.728 375.623 315.442 348.385 320.609 315.309C325.733 282.51 330.279 255.373 330.712 255.003C331.146 254.633 333.75 253.521 336.5 252.532C353.834 246.297 369.243 230.15 375.179 212C378.105 203.052 378.805 185.747 376.597 176.924C371.95 158.352 359.247 142.238 343 134.307C338.325 132.025 333.77 129.933 332.877 129.659C331.692 129.295 330.928 126.933 330.049 120.925C327.737 105.11 321.325 86.558 313.313 72.5C291.766 34.695 254.039 8.36701 211.53 1.47301C200.557 -0.306988 176.438 -0.297989 166 1.49001ZM171.635 10.066C131.788 15.583 95.72 39.389 74.667 74.066C65.599 89.002 59.255 107.409 56.851 125.759C56.067 131.743 55.083 135.478 54.069 136.319C53.206 137.035 49.919 138.402 46.764 139.357C39.069 141.686 27.07 149.872 21.954 156.283C17.101 162.364 12.901 170.432 10.909 177.5C8.656 185.495 9.103 201.187 11.811 209.109C23.988 244.742 66.2 258.871 96.34 237.401C106.781 229.963 105.931 230.039 113.683 235.856C135.228 252.024 162.565 251.429 183.603 234.334C185.86 232.5 188.195 231 188.792 231C189.39 231 193.285 233.444 197.45 236.432C206.217 242.723 213.274 245.621 223.278 247.039C237.489 249.055 251.998 245.101 264.317 235.856C272.069 230.039 271.219 229.963 281.66 237.401C296.731 248.137 316.885 250.533 333.914 243.613C341.886 240.374 347.549 236.335 354.218 229.131C370.929 211.081 373.474 184.548 360.6 162.581C354.669 152.459 341.215 142.054 330 138.915C323.084 136.978 322.487 136.077 321.1 125.479C313.659 68.601 271.252 23.252 214.5 11.484C204.994 9.513 181.291 8.728 171.635 10.066ZM210.2 19.2C208.208 21.192 208.718 28.718 211 31C213.508 33.508 214.493 33.507 217.01 30.99C218.646 29.354 218.903 28.189 218.391 24.74C217.517 18.847 213.363 16.037 210.2 19.2ZM181.248 23.73C174.243 26.099 174.336 33.018 181.372 32.985C186.688 32.96 189.5 30.919 189.5 27.085C189.5 22.791 187.014 21.78 181.248 23.73ZM139.75 29.08C137.255 30.533 137.31 39.066 139.829 41.345C142.201 43.491 143.567 43.433 145.916 41.084C147.425 39.575 147.719 38.248 147.299 34.834C146.569 28.9 143.749 26.751 139.75 29.08ZM241 39.752C234.745 42.877 236.138 49.726 242.809 48.644C250.022 47.473 253.849 41.595 249.066 39.035C246.4 37.609 245.05 37.728 241 39.752ZM189.223 44.557C187.457 45.793 187 47.089 187 50.857C187 57.551 190.603 60.254 194.429 56.429C196.823 54.034 196.569 45.375 194.066 44.035C191.634 42.734 191.86 42.71 189.223 44.557ZM212.751 44.741C210.876 45.175 209.44 49.099 210.318 51.387C210.612 52.152 212.917 53.567 215.441 54.531C219.832 56.208 220.115 56.206 222.015 54.487C224.306 52.413 224.585 49.73 222.673 48.144C220.473 46.318 214.616 44.31 212.751 44.741ZM164.308 46.973C159.892 48.95 158.499 51.195 159.976 53.955C161.358 56.538 163.462 57.078 167.222 55.813C172.055 54.187 173.136 53.001 172.801 49.693C172.389 45.62 169.441 44.675 164.308 46.973ZM263.2 55.2C261.208 57.192 261.718 64.718 264 67C266.508 69.508 267.493 69.507 270.01 66.99C271.652 65.348 271.902 64.202 271.374 60.74C271.018 58.408 270.283 55.938 269.741 55.25C268.488 53.662 264.767 53.633 263.2 55.2ZM105.329 58.708C101.587 60.572 100.665 63.077 102.667 65.935C104.414 68.43 106.793 68.543 111.388 66.352C115.391 64.443 116.382 61.991 114.333 59.065C112.631 56.635 109.72 56.52 105.329 58.708ZM139.2 58.2C137.808 59.592 137.67 61.932 138.87 63.824C140.12 65.795 147.663 67.25 150.04 65.979C152.674 64.569 152.691 59.44 150.066 58.035C147.431 56.625 140.673 56.727 139.2 58.2ZM236.046 64.445C232.73 68.44 239.402 75.12 245.243 73.654C250.387 72.363 249.924 67.288 244.422 64.664C240.133 62.619 237.616 62.553 236.046 64.445ZM172.2 70.2C170.449 71.951 170.7 79.558 172.571 81.429C174.6 83.457 177.427 83.43 179.493 81.364C180.742 80.115 180.969 78.752 180.452 75.614C180.079 73.351 179.32 70.938 178.764 70.25C177.482 68.662 173.766 68.634 172.2 70.2ZM214.065 72.667C211.481 74.477 211.473 76.047 214.02 81.04C215.696 84.325 216.552 85 219.042 85C223.569 85 224.809 81.506 222.14 76.274C219.831 71.748 217.111 70.533 214.065 72.667ZM282.935 78.065C280.906 80.094 280.854 81.9 282.641 88.248C283.276 90.502 287.581 91.593 289.513 89.989C291.783 88.105 291.456 80.456 289 78C286.481 75.481 285.508 75.492 282.935 78.065ZM120.329 80.458C116.019 82.332 114.648 85.052 116.604 87.845C118.298 90.264 120.239 90.51 124.872 88.895C129.229 87.376 130.608 84.577 128.548 81.433C126.747 78.685 124.907 78.466 120.329 80.458ZM84.388 82.98C81.519 84.139 80.799 87.531 82.878 90.097C84.345 91.909 85.207 92.092 89.363 91.468C92.959 90.929 94.413 90.187 95.181 88.501C96.867 84.801 94.697 81.987 90.215 82.063C88.172 82.098 85.55 82.511 84.388 82.98ZM147.557 84.223C145.553 87.083 145.592 87.592 148 90C150.836 92.836 158.495 92.812 160.02 89.962C161.727 86.773 160.291 84.175 156.192 83.037C150.797 81.538 149.292 81.745 147.557 84.223ZM193.465 85.952C189.781 87.445 188.559 89.736 189.889 92.656C190.971 95.031 191.461 95.208 195.648 94.736C201.753 94.048 204.83 91.118 203.201 87.542C202.293 85.548 201.338 85.014 198.771 85.063C196.972 85.098 194.584 85.498 193.465 85.952ZM257.82 88.496C256.411 91.588 258.529 94.359 263.572 96.024C268.145 97.533 271 95.953 271 91.914C271 89.418 270.402 88.648 267.532 87.449C262.255 85.244 259.149 85.579 257.82 88.496ZM236.075 97.925C233.588 100.412 233.545 100.905 235.557 103.777C238.654 108.199 249 106.101 249 101.051C249 98.553 247.21 97.343 242.325 96.538C238.865 95.967 237.795 96.205 236.075 97.925ZM164.996 98.505C163.593 100.195 164.359 107.523 166.166 109.7C167.519 111.33 171.214 111.386 172.8 109.8C174.273 108.327 174.375 101.569 172.965 98.934C171.71 96.59 166.805 96.326 164.996 98.505ZM136.273 102.113C131.882 103.382 130.353 106.364 132.452 109.567C134.241 112.298 134.94 112.422 140.238 110.951C145.512 109.486 147.456 105.599 144.429 102.571C142.684 100.827 141.044 100.734 136.273 102.113ZM97.065 103.935C94.492 106.508 94.481 107.481 97 110C99.456 112.456 107.105 112.783 108.989 110.513C110.593 108.581 109.502 104.276 107.248 103.641C100.9 101.854 99.094 101.906 97.065 103.935ZM211.365 107.025C209.095 110.454 208.868 111.416 209.829 113.525C211.593 117.395 216.258 116.937 218.918 112.632C222.325 107.12 221.211 103 216.314 103C214.753 103 213.184 104.276 211.365 107.025ZM298.935 106.065C296.906 108.094 296.854 109.9 298.641 116.248C299.276 118.502 303.581 119.593 305.513 117.989C307.783 116.105 307.456 108.456 305 106C302.481 103.481 301.508 103.492 298.935 106.065ZM69.166 111.3C67.359 113.477 66.593 120.805 67.996 122.495C69.826 124.7 73.655 124.331 75.443 121.777C77.289 119.143 77.499 112.899 75.8 111.2C74.214 109.614 70.519 109.67 69.166 111.3ZM280 113.29C277.151 114.726 276.23 118.367 278.134 120.662C279.584 122.409 287.226 121.887 289.649 119.876C291.323 118.487 291.406 114.806 289.8 113.2C288.242 111.642 283.177 111.688 280 113.29ZM191.996 118.505C190.593 120.195 191.359 127.523 193.166 129.7C194.519 131.33 198.214 131.386 199.8 129.8C201.249 128.351 201.364 123.089 200.025 119.565C199.287 117.625 198.342 117 196.147 117C194.551 117 192.683 117.677 191.996 118.505ZM143.557 124.223C141.711 126.857 141.501 133.101 143.2 134.8C143.86 135.46 145.671 136 147.225 136C150.339 136 152 133.22 152 128.006C152 122.476 146.505 120.013 143.557 124.223ZM224.2 123.2C222.644 124.756 222.644 133.244 224.2 134.8C224.86 135.46 226.345 136 227.5 136C228.655 136 230.14 135.46 230.8 134.8C232.273 133.327 232.375 126.569 230.965 123.934C229.808 121.772 226.037 121.363 224.2 123.2ZM89.106 125.157C86.709 126.043 86.141 131.079 88.25 132.739C92.363 135.976 101 134.187 101 130.098C101 126.284 93.962 123.36 89.106 125.157ZM119 125.728C115.08 127.713 113.815 131.772 116.438 133.949C118.404 135.58 124.047 134.592 127.158 132.073C129.131 130.476 129.317 129.802 128.461 127.355C127.225 123.818 123.901 123.247 119 125.728ZM256.75 127.08C255.788 127.641 255 129.209 255 130.564C255 135.24 265.041 139.066 267.989 135.513C270.162 132.895 268.376 129.368 263.989 127.612C259.317 125.743 259.076 125.725 256.75 127.08ZM168.2 129.2C166.313 131.087 166.78 133.845 169.619 137.567C173.882 143.156 179.769 141.768 179.118 135.327C179.053 134.681 177.835 132.769 176.411 131.077C173.725 127.884 170.299 127.101 168.2 129.2ZM67.065 142.667C64.234 144.65 64.477 147.43 67.75 150.491C71.799 154.278 74.939 154.794 77.169 152.04C79.631 148.999 79.511 148.354 75.867 145.025C71.931 141.431 69.688 140.83 67.065 142.667ZM297.996 143.505C296.593 145.195 297.359 152.523 299.166 154.7C300.519 156.33 304.214 156.386 305.8 154.8C307.249 153.351 307.364 148.089 306.025 144.565C305.287 142.625 304.342 142 302.147 142C300.551 142 298.683 142.677 297.996 143.505ZM236 145C233.481 147.519 233.492 148.492 236.065 151.065C238.09 153.09 239.887 153.144 246.199 151.374C248.46 150.74 249.372 147.564 248.02 145.038C246.495 142.188 238.836 142.164 236 145ZM201.75 145.08C199.951 146.128 199.447 149.582 200.786 151.687C201.749 153.203 206.446 155 209.443 155C215.578 155 215.245 148.115 208.989 145.612C204.317 143.743 204.076 143.725 201.75 145.08ZM102.479 149.439C99.241 153.684 99.41 157.884 102.87 159.154C104.861 159.885 105.782 159.451 108.62 156.441C112.096 152.756 112.909 149.309 110.8 147.2C108.567 144.967 105.198 145.873 102.479 149.439ZM137.87 147.221C133.098 151.058 136.198 156 143.378 156C146.032 156 148.241 155.415 148.989 154.513C150.593 152.581 149.502 148.276 147.248 147.641C142.001 146.164 139.334 146.045 137.87 147.221ZM164.389 150.98C161.44 152.171 160.678 154.86 162.5 157.641C164.198 160.232 166.953 160.609 171.81 158.916C177.986 156.763 176.759 149.952 170.215 150.063C168.172 150.098 165.55 150.511 164.389 150.98ZM270.75 151.08C268.053 152.651 268.603 157.119 271.944 160.777C275.122 164.257 276.093 164.556 279.066 162.965C281.635 161.59 281.515 157.94 278.784 154.385C275.217 149.74 273.948 149.218 270.75 151.08ZM32.658 161.995C29.069 166.26 28.488 168.777 30.565 171.072C33.11 173.884 35.56 173.444 38.449 169.656C41.509 165.644 41.775 161.485 39.066 160.035C36.174 158.488 35.413 158.721 32.658 161.995ZM337.576 160.916C335.382 163.341 335.995 166.721 339.336 170.604C341.169 172.735 342.205 173.165 344.262 172.649C348.031 171.703 348.547 168.722 345.805 163.741C343.145 158.91 340.281 157.927 337.576 160.916ZM194.246 162.001C189.864 163.963 188.505 166.207 190.003 169.005C191.462 171.731 194.203 172.231 198.303 170.518C202.523 168.755 204.089 166.36 202.965 163.388C201.843 160.42 198.843 159.943 194.246 162.001ZM242.39 165.427C241.178 168.584 242.537 171.507 246 173.197C247.925 174.136 250.277 174.926 251.227 174.952C253.453 175.014 256.237 170.781 255.402 168.604C253.948 164.815 243.594 162.287 242.39 165.427ZM126.465 165.952C121.67 167.895 120.644 174.118 124.897 175.467C127.966 176.441 134.928 173.135 135.621 170.375C136.749 165.88 132.138 163.652 126.465 165.952ZM59.25 170.989C54.517 173.875 55.14 180 60.166 180C63.055 180 68.937 176.775 69.545 174.857C71.22 169.58 65.244 167.334 59.25 170.989ZM309.25 170.123C305.893 173.552 309.077 178.265 315.639 179.578C321.3 180.71 324.312 174.561 319.606 171.477C316.247 169.276 310.779 168.562 309.25 170.123ZM87.748 173.95C85.469 177.203 86.664 179.819 91.025 181.126C96.155 182.663 99.805 181.626 100.614 178.4C101.494 174.894 99.252 172.895 93.74 172.274C89.959 171.848 89.04 172.105 87.748 173.95ZM280 173.29C277.151 174.726 276.23 178.367 278.134 180.661C279.637 182.472 287.04 182.041 289.499 180C291.302 178.505 291.463 174.863 289.8 173.2C288.242 171.642 283.177 171.688 280 173.29ZM225.5 177.359C223.572 180.302 224.411 182.644 228.072 184.537C232.447 186.8 236.897 186.444 237.914 183.75C239.088 180.641 237.597 178.276 233.342 176.498C228.489 174.471 227.308 174.6 225.5 177.359ZM165.576 178.195C164.502 179.728 164.219 181.612 164.638 184.445C166 193.657 174 192.921 174 183.584C174 176.831 168.842 173.532 165.576 178.195ZM207.2 180.2C204.534 182.866 207.098 191.261 210.951 192.485C213.651 193.341 217 191.365 217 188.915C217 186.59 214.244 180.846 212.61 179.765C210.941 178.661 208.547 178.853 207.2 180.2ZM256.5 184.724C253.476 185.467 252 187.008 252 189.422C252 192.483 253.867 194 257.635 194C263.209 194 266 192.407 266 189.225C266 184.524 263.032 183.118 256.5 184.724ZM116.551 188.344C112.615 193.504 113.575 198 118.611 198C123.517 198 128.576 187.203 124.418 185.607C121.157 184.356 119.028 185.097 116.551 188.344ZM75.592 190.898C73.152 193.594 73.773 200.79 76.606 202.662C78.448 203.878 78.973 203.83 80.778 202.277C83.633 199.821 84.666 192.809 82.493 190.636C80.325 188.467 77.702 188.567 75.592 190.898ZM295.2 190.2C293.208 192.192 293.718 199.718 296 202C298.521 204.521 299.491 204.509 302.075 201.925C303.795 200.205 304.033 199.135 303.462 195.675C303.084 193.379 302.32 190.938 301.764 190.25C300.482 188.662 296.766 188.634 295.2 190.2ZM141.25 191.115C140.563 191.822 140 193.38 140 194.578C140 197.357 141.567 198.571 146.236 199.412C152.467 200.535 156.025 196.746 153.091 192.113C151.886 190.21 142.869 189.449 141.25 191.115ZM43.2 193.2C41.634 194.766 41.662 198.487 43.25 199.747C45.337 201.404 51.823 202.165 53.986 201.008C57.077 199.353 56.726 194.226 53.435 192.975C49.911 191.636 44.649 191.751 43.2 193.2ZM187 193.752C180.745 196.877 182.138 203.726 188.809 202.644C196.022 201.473 199.849 195.595 195.066 193.035C192.4 191.609 191.05 191.728 187 193.752ZM325.248 192.706C320.446 193.631 319.93 200.442 324.573 201.608C328.379 202.563 333.852 201.145 335.059 198.89C335.891 197.335 335.773 196.302 334.548 194.433C332.967 192.019 330.852 191.627 325.248 192.706ZM24.619 203.433C21.78 207.155 21.313 209.913 23.2 211.8C25.384 213.984 28.714 213.09 31.896 209.465C35.291 205.599 35.506 204.814 33.965 201.934C32.233 198.698 27.673 199.429 24.619 203.433ZM344.2 201.2C342.182 203.218 342.859 206.34 346.055 209.75C349.618 213.551 352.273 213.877 354.443 210.777C356.521 207.811 356.479 207.615 352.896 203.535C349.714 199.91 346.384 199.016 344.2 201.2ZM273 203.732C269.576 204.361 268 205.84 268 208.422C268 211.66 269.916 213 274.545 213C280.848 213 284.14 208.283 280.429 204.571C278.858 203 277.694 202.869 273 203.732ZM238.2 205.2C236.634 206.766 236.662 210.476 238.25 211.788C240.351 213.524 246.624 214.271 248.895 213.056C251.666 211.573 251.775 206.485 249.066 205.035C246.431 203.625 239.673 203.727 238.2 205.2ZM129.988 209.895C126.704 211.105 125.412 212.161 125.173 213.829C124.469 218.747 128.905 220.32 135.597 217.524C138.719 216.22 139.094 215.679 138.815 212.882C138.396 208.674 135.741 207.775 129.988 209.895ZM97.783 211.578C96.107 215.255 97.774 217.319 103.302 218.409C108.775 219.489 111 218.207 111 213.975C111 211.757 110.364 210.974 107.851 210.098C102.413 208.202 99.099 208.689 97.783 211.578ZM165.2 211.2C163.751 212.649 163.636 217.911 164.975 221.435C166.248 224.782 171.355 225.073 173.056 221.895C174.271 219.624 173.524 213.351 171.788 211.25C170.476 209.662 166.766 209.634 165.2 211.2ZM206.783 211.75C202.629 216.513 201.882 221.331 205.038 223.02C207.98 224.595 210.56 223.41 212.927 219.398C215.473 215.084 215.514 213.775 213.171 211.655C210.817 209.524 208.698 209.556 206.783 211.75ZM75.25 216.973C71.903 218.492 71 219.432 71 221.394C71 225.08 74.388 227.098 78.349 225.772C84.745 223.63 86.731 219.876 83.171 216.655C80.888 214.588 80.466 214.605 75.25 216.973ZM294.75 216.08C293.702 216.691 293 218.297 293 220.085C293 222.679 293.601 223.329 297.573 225.031C302.637 227.202 305.368 226.567 306.515 222.953C307.333 220.376 305.634 218.292 301.207 216.442C297.168 214.755 297.038 214.747 294.75 216.08ZM40.667 223.065C38.465 226.208 39.714 228.834 44.025 230.126C50.63 232.104 55.231 229.371 53.386 224.564C51.93 220.769 43.011 219.718 40.667 223.065ZM324.116 223.882C319.996 224.635 317.832 227.576 319.063 230.75C319.543 231.988 320.738 233.048 321.718 233.106C328.646 233.518 333 231.509 333 227.902C333 226.299 329.354 222.801 328.027 223.132C327.737 223.204 325.977 223.542 324.116 223.882ZM232.051 226.662C227.665 232.238 228.574 237 234.024 237C238.565 237 242.849 228.249 239.8 225.2C237.788 223.188 234.26 223.854 232.051 226.662ZM139.2 230.2C137.808 231.592 137.67 233.932 138.87 235.824C140.12 237.795 147.663 239.25 150.04 237.979C152.674 236.569 152.691 231.44 150.066 230.035C147.431 228.625 140.673 228.727 139.2 230.2ZM101.665 245.433C91.57 252.61 77.671 256.95 64.671 256.983L57.841 257L58.39 259.75C59.233 263.974 75 366.625 75 367.888C75 368.697 106.024 369 189 369C266.683 369 303 368.671 303 367.968C303 367.401 306.825 342.427 311.5 312.471C316.175 282.515 320 257.779 320 257.503C320 257.226 316.962 256.992 313.25 256.983C300.329 256.949 286.406 252.593 276.335 245.433L271.757 242.178L267.128 245.466C261.062 249.774 257.835 251.364 249.45 254.172C239.573 257.48 220.558 257.453 211 254.117C205.251 252.11 195.8 247.264 190.75 243.734C189.37 242.769 188.63 242.769 187.25 243.734C186.288 244.407 182.653 246.6 179.174 248.607C158.289 260.658 130.233 259.413 110.981 245.582L106.243 242.178L101.665 245.433ZM105.2 283.2C104.331 284.069 104 291.237 104 309.165C104 332.626 104.102 333.984 105.934 334.965C108.562 336.371 109.586 336.271 111.429 334.429C112.771 333.086 113 329.321 113 308.629C113 283.187 112.799 282 108.5 282C107.345 282 105.86 282.54 105.2 283.2ZM145.655 283.829C143.248 286.488 143.162 330.359 145.557 333.777C147.447 336.476 150.119 336.631 152.345 334.171C153.786 332.579 154 329.305 154 308.826C154 287.314 153.844 285.169 152.171 283.655C149.794 281.504 147.709 281.56 145.655 283.829ZM186.2 283.2C185.333 284.067 185 291.117 185 308.629C185 329.321 185.229 333.086 186.571 334.429C188.414 336.271 189.438 336.371 192.066 334.965C193.898 333.984 194 332.626 194 309.165C194 283.159 193.808 282 189.5 282C188.345 282 186.86 282.54 186.2 283.2ZM226.557 284.223C225.258 286.076 225 290.226 225 309.223C225 330.667 225.117 332.117 227 334C229.483 336.483 231.211 336.53 233.345 334.171C234.787 332.578 235 329.299 235 308.743C235 288.622 234.768 284.911 233.429 283.571C231.21 281.353 228.379 281.621 226.557 284.223ZM267.571 283.571C266.231 284.912 266 288.645 266 309C266 329.355 266.231 333.088 267.571 334.429C269.414 336.271 270.438 336.371 273.066 334.965C274.898 333.984 275 332.626 275 309.165C275 291.237 274.669 284.069 273.8 283.2C272.139 281.539 269.443 281.7 267.571 283.571Z" fill="black"/>
</svg>
