<svg viewBox="0 0 206 51" fill="none" xmlns="http://www.w3.org/2000/svg" >
    <path d="M44.1757 27.7036C32.6757 26.2036 14.1757 34.2036 10.6757 34.2036C7.17571 34.2036 -1.32431 26.2036 0.175679 21.2036C1.67567 16.2036 7.76663 9.78346 23.6757 4.20362C35.3984 0.081605 42.895 -0.839594 55.1757 0.703618C70.6965 2.654 86.1757 17.2036 91.6757 17.2036C97.1757 17.2036 107.268 3.83561 126.676 4.20362C139.307 2.82734 160.676 17.7036 168.176 17.7036C175.676 17.7036 181.176 7.70361 187.676 5.70361C194.176 3.70361 196.176 3.70361 201.176 9.20362C206.176 14.7036 205.707 17.1398 204.676 24.7036C194.957 35.0914 182.176 42.7036 173.676 42.7036C165.176 42.7036 141.676 31.7036 128.676 31.7036C115.676 31.7036 101.285 52.3083 86.6757 50.7036C72.0663 49.0989 55.6757 29.2036 44.1757 27.7036Z" fill="#BEF7BD"/>
</svg>