<svg width="378" height="379" viewBox="0 0 378 379" fill="none" xmlns="http://www.w3.org/2000/svg">
<path fill-rule="evenodd" clip-rule="evenodd" d="M117.5 1.563C80.838 6.535 49.415 20.726 27.958 42C7.839 61.947 -1.11699 84.536 0.376014 111.566C1.48001 131.544 6.63101 145.568 16.769 156.197C19.821 159.397 22.134 162.158 21.909 162.334C21.684 162.509 19.475 163.669 17 164.912C11.339 167.754 5.472 173.315 2.665 178.5C0.761 182.018 0.500007 184.067 0.500007 195.5C0.500007 207.676 0.670011 208.822 3.18601 213.59C5.99001 218.904 10.929 223.878 16.013 226.507C17.656 227.356 19 228.295 19 228.592C19 228.89 17.842 230.652 16.426 232.508C12.293 237.926 10 245.218 10 252.939C10 261.383 10.906 262.478 18.633 263.387C30.041 264.727 29 262.908 29 281.511V297.804L26.098 298.816C22.486 300.075 15.34 306.441 13.462 310.073C10.126 316.525 9.92901 321.142 12.393 335.192C13.952 344.086 15.69 350.536 17.553 354.34C20.893 361.161 28.064 368.628 34.79 372.289C45.759 378.259 38.753 378 189 378C339.247 378 332.241 378.259 343.21 372.289C349.936 368.628 357.107 361.161 360.447 354.34C362.31 350.536 364.048 344.086 365.607 335.192C368.071 321.142 367.874 316.525 364.538 310.073C362.796 306.705 355.742 300.232 352.448 298.98L350 298.05V281.632C350 263.096 349.297 264.518 358.998 263.421C367.442 262.465 368.406 261.277 367.617 252.793C366.898 245.055 364.555 238.182 360.703 232.513L358.061 228.625L362.28 226.242C368.219 222.887 371.769 219.286 374.843 213.5C377.326 208.827 377.5 207.65 377.5 195.5C377.5 183.211 377.354 182.254 374.835 178C371.433 172.256 366.698 167.776 361 164.914C358.525 163.67 356.316 162.509 356.091 162.334C355.866 162.158 358.179 159.397 361.231 156.197C371.369 145.568 376.52 131.544 377.624 111.566C379.117 84.535 370.16 61.944 350.041 42C335.739 27.823 315.893 16.172 294 9.10299C267.882 0.667994 259.748 -0.0200064 187.699 0.102994C143.103 0.178994 124.908 0.558 117.5 1.563ZM113.628 10.549C76.431 16.437 42.54 34.523 24.807 57.948C13.783 72.511 9.00001 87.111 9.00001 106.202C9.00001 134.614 17.992 152.752 34.979 158.605C41.093 160.711 336.907 160.711 343.021 158.605C360.008 152.752 369 134.614 369 106.202C369 92.269 366.862 82.295 361.556 71.472C347.704 43.218 315.303 21.593 272.177 11.818C262.777 9.68699 260.493 9.617 192.5 9.384C136.347 9.191 120.745 9.42199 113.628 10.549ZM172.011 19.979C171.058 21.761 171.207 23.888 172.66 29.25C173.206 31.262 176.998 31.602 178.8 29.8C180.273 28.327 180.37 22.559 178.965 19.934C177.604 17.392 173.381 17.42 172.011 19.979ZM240.57 22.204C238.212 25.57 240.52 28.411 245.938 28.811C250.518 29.15 253 27.787 253 24.934C253 20.295 243.386 18.183 240.57 22.204ZM213.667 21.667C211.624 23.709 214.423 32.181 217.535 33.375C219.932 34.295 223.001 32.238 222.996 29.715C222.99 26.047 219.333 21 216.681 21C215.39 21 214.033 21.3 213.667 21.667ZM118 25.801C115.494 27.022 114.412 28.268 114.19 30.186C113.722 34.231 116.895 35.546 121.633 33.271C126.754 30.811 127.917 28.671 125.553 26.059C123.33 23.603 122.566 23.577 118 25.801ZM287.571 28.571C284.65 31.493 285.805 34.072 291 36.226C294.607 37.722 296.953 37.519 298.235 35.6C299.895 33.114 298.852 30.965 295.04 29.02C290.273 26.588 289.595 26.548 287.571 28.571ZM85.081 31.456C83.2 32.099 81.051 33.544 80.304 34.668C79.127 36.442 79.196 37.021 80.829 39.037C82.579 41.198 82.951 41.269 86.106 40.043C90.797 38.221 93.241 35.318 92.013 33.025C90.658 30.492 89.002 30.117 85.081 31.456ZM148.507 32.635C146.735 34.408 146.527 37.589 148.118 38.573C150.523 40.059 156.433 40.839 158.185 39.901C160.262 38.789 160.608 34.724 158.75 33.261C156.387 31.402 150.124 31.019 148.507 32.635ZM193.25 35.468C189.446 37.148 188.723 41.246 191.929 42.962C194.356 44.261 200.82 42.277 202.397 39.75C205.054 35.495 199.294 32.799 193.25 35.468ZM259.2 36.2C256.266 39.134 259.024 43.011 265.106 44.505C266.871 44.938 268.243 44.614 269.356 43.501C271.817 41.04 271.361 39.191 267.75 36.989C264.053 34.735 260.951 34.449 259.2 36.2ZM231.832 44.47C230.364 47.69 231.863 49.564 236.618 50.456C239.096 50.921 240.894 50.644 242.583 49.538C247.411 46.374 244.407 42 237.407 42C233.645 42 232.783 42.382 231.832 44.47ZM312.039 46.928C311.471 47.988 311.257 49.506 311.562 50.302C312.361 52.384 319.414 55.321 321.798 54.564C326.348 53.12 325.171 47.953 319.872 46.105C315.309 44.515 313.212 44.735 312.039 46.928ZM57.263 47.25C55.653 49.301 54.943 55.025 56.044 57.082C57.383 59.584 61.623 59.574 62.965 57.066C64.37 54.441 64.273 48.673 62.8 47.2C61.241 45.641 58.507 45.666 57.263 47.25ZM166.2 47.2C164.727 48.673 164.63 54.441 166.035 57.066C167.377 59.574 171.617 59.584 172.956 57.082C174.057 55.025 173.347 49.301 171.737 47.25C170.493 45.666 167.759 45.641 166.2 47.2ZM137.096 51.306C132.831 52.802 131.081 55.315 132.607 57.75C134.094 60.121 137.077 60.412 141.398 58.607C145.198 57.019 146.281 53.681 143.8 51.2C142.35 49.75 141.497 49.763 137.096 51.306ZM280.037 51.932C278.667 54.492 280.059 61.004 282.275 62.402C286.286 64.931 289.807 57.246 287.023 52.042C285.622 49.425 281.414 49.358 280.037 51.932ZM98.055 52.674C95.83 54.232 95.318 57.46 97.118 58.573C99.523 60.059 105.433 60.839 107.185 59.901C109.184 58.831 109.648 54.519 107.882 53.427C105.022 51.659 100.047 51.278 98.055 52.674ZM214.477 52.744C212.613 54.121 210 58.898 210 60.93C210 63.515 213.395 65.399 215.75 64.121C218.618 62.565 221.583 56.149 220.346 54.175C219.187 52.327 216.071 51.567 214.477 52.744ZM193.25 66.662C191.631 67.315 191.591 76.191 193.2 77.8C194.973 79.573 198.795 79.257 199.845 77.25C200.897 75.239 200.226 69.098 198.752 67.25C197.741 65.982 195.523 65.745 193.25 66.662ZM247.434 68.312C246.294 71.283 247.534 73.5 251.339 75.292C255.694 77.342 258.603 76.825 259.554 73.831C260.486 70.892 257.18 67.968 252.165 67.295C248.98 66.868 247.899 67.101 247.434 68.312ZM337.2 70.2C335.213 72.187 335.739 78.739 338.073 81.073C339.953 82.953 340.35 83.009 342.323 81.67C344.089 80.473 344.445 79.383 344.21 75.901C344.05 73.54 343.433 71.021 342.837 70.304C341.483 68.672 338.777 68.623 337.2 70.2ZM30.182 71.52C27.446 72.708 26.919 73.429 27.182 75.63C27.677 79.782 30.112 80.704 34.892 78.549C39.278 76.571 40.884 73.77 38.96 71.452C37.452 69.635 34.468 69.658 30.182 71.52ZM64.25 72.491C60.33 74.195 59.725 78.247 63.118 80.063C65.786 81.491 72.644 78.698 73.56 75.81C74.932 71.49 70.329 69.849 64.25 72.491ZM144.2 72.2C143.54 72.86 143 75.544 143 78.165C143 81.852 143.437 83.164 144.934 83.965C147.436 85.304 147.569 85.288 149.429 83.429C151.3 81.558 151.551 73.951 149.8 72.2C149.14 71.54 147.88 71 147 71C146.12 71 144.86 71.54 144.2 72.2ZM224.571 72.571C221.667 75.476 222.968 83.006 226.617 84.406C230.955 86.071 233.74 77.93 230.443 73.223C228.61 70.606 226.744 70.399 224.571 72.571ZM304.667 71.667C303.196 73.138 304.114 77.026 306.25 78.373C310.384 80.98 313.014 81.297 315.072 79.435C316.132 78.475 317 77.078 317 76.33C317 73.305 306.862 69.472 304.667 71.667ZM119.828 74.627C115.665 76.355 114.539 78.271 116.039 81.072C118.098 84.921 128 82.108 128 77.674C128 75.257 126.29 72.966 124.55 73.052C123.973 73.08 121.848 73.789 119.828 74.627ZM88.2 75.2C86.642 76.758 86.666 79.479 88.25 80.788C90.427 82.587 96.881 83.343 98.511 81.991C100.616 80.244 100.361 76.263 98.066 75.035C95.441 73.63 89.673 73.727 88.2 75.2ZM278.984 75.812C277.367 77.121 276.934 78.217 277.424 79.761C278.325 82.599 281.043 83.335 285.848 82.041C290.195 80.87 291.538 78.874 289.961 75.928C288.596 73.377 282.076 73.308 278.984 75.812ZM169.427 77.765C167.15 79.325 167.198 81.88 169.565 85.088C172.573 89.166 173.71 89.889 176.122 89.258C179.351 88.413 179.509 84.534 176.475 80.557C173.848 77.112 171.651 76.242 169.427 77.765ZM237.193 93.562C234.58 95.41 234.57 98.713 237.172 100.343C239.392 101.735 245.946 100.073 247.397 97.75C250.098 93.425 242.055 90.123 237.193 93.562ZM201.805 94.983C198.91 97.359 200.013 99.691 205.272 102.31C208.102 103.719 209.36 103.878 210.953 103.025C213.576 101.622 213.644 97.415 211.067 96.036C205.858 93.248 204.154 93.054 201.805 94.983ZM43 96C41.419 98.954 43.309 101.648 47.517 102.437C52.119 103.301 54.727 102.434 55.576 99.761C57.119 94.9 45.456 91.412 43 96ZM324.183 95.032C322.435 95.751 321.944 96.638 322.183 98.642C322.628 102.37 325.018 103.6 329.574 102.445C334.052 101.31 335.997 98.81 334.394 96.25C333.139 94.247 327.676 93.595 324.183 95.032ZM75.571 97.571C73.218 99.925 73.459 107.64 75.928 108.961C78.275 110.218 80.761 109.397 81.387 107.158C83.005 101.37 83.027 99.17 81.481 97.624C79.436 95.579 77.58 95.562 75.571 97.571ZM137.2 97.2C135.641 98.759 135.666 101.493 137.25 102.737C139.301 104.347 145.025 105.057 147.082 103.956C149.584 102.617 149.574 98.377 147.066 97.035C144.441 95.63 138.673 95.727 137.2 97.2ZM296.2 97.2C294.213 99.187 294.739 105.739 297.073 108.073C298.95 109.95 299.353 110.007 301.323 108.678C302.989 107.554 303.481 106.26 303.418 103.16C303.294 97.055 299.488 93.912 296.2 97.2ZM170.621 98.522C166.951 102.192 170.166 106.419 175.848 105.396C180.687 104.526 182.164 103.208 181.801 100.086C181.532 97.772 181.013 97.468 176.871 97.2C173.624 96.99 171.759 97.384 170.621 98.522ZM100.104 102.535C96.818 106.277 96.23 108.83 98.2 110.8C100.271 112.871 102.806 112.121 105.449 108.656C108.49 104.669 108.72 101.455 106.066 100.035C103.432 98.626 103.596 98.557 100.104 102.535ZM270.565 100.928C269.569 102.028 269.069 103.639 269.399 104.678C270.214 107.242 274.808 112 276.469 112C277.827 112 281 109.407 281 108.297C281 106.897 276.634 100.875 274.976 99.987C272.561 98.695 272.592 98.688 270.565 100.928ZM243.2 114.2C240.234 117.166 243.027 121.011 249.263 122.544C255.18 123.999 257.077 118.237 251.75 114.989C248.053 112.735 244.951 112.449 243.2 114.2ZM126.4 115.428C121.542 117.543 120.858 122.186 125.202 123.564C127.586 124.321 134.639 121.384 135.438 119.302C136.307 117.036 134.157 113.996 131.715 114.039C130.497 114.061 128.105 114.686 126.4 115.428ZM24.718 170.437C19.081 172.448 14.488 175.936 11.588 180.409C9.191 184.107 9.00001 185.236 9.00001 195.75C9.00001 208.042 9.715 210.5 14.661 215.197C21.194 221.402 9.10999 221.002 189.218 220.978C346.99 220.957 353.659 220.883 357.5 219.104C362.156 216.949 366.424 212.687 367.936 208.685C368.521 207.137 369 201.123 369 195.321C369 183.12 367.364 178.91 360.876 174.414C352.755 168.786 362.493 169.088 189 169.088C56.829 169.088 27.832 169.326 24.718 170.437ZM26.843 233.25C22.351 237.365 19.29 243.337 18.458 249.608L17.808 254.506L23.78 255.641C27.064 256.265 33.436 258.439 37.94 260.473C53.015 267.279 63.739 267.116 80.12 259.832C88.629 256.049 90.429 255.62 99.5 255.217C110.212 254.74 113.68 255.569 129.989 262.511C135.484 264.849 137.874 265.273 145.583 265.273C153.94 265.273 155.378 264.965 163.094 261.526C176.162 255.702 180.179 254.817 191.531 255.26C200.809 255.623 202.254 255.971 210.789 259.903C226.313 267.054 238.536 267.292 252.39 260.712C262.54 255.892 268.622 254.655 279.399 255.219C287.4 255.638 289.731 256.223 297.973 259.881C314.057 267.02 325.175 267.194 339.922 260.535C344.35 258.536 350.505 256.369 353.599 255.72L359.224 254.54L358.667 249.838C357.993 244.147 354.865 237.637 350.696 233.25L347.608 230H188.999H30.391L26.843 233.25ZM91.265 264.475C88.385 265.287 83.78 267.091 81.031 268.484C67.905 275.135 55.776 275.661 38.75 270.316C37.142 269.811 37 270.871 37 283.349V296.931L116.272 297.216L195.544 297.5L202.272 300.812C208.521 303.89 213.406 307.954 231.5 325.129L236.5 329.876L250.358 316.947C260.448 307.534 266.015 303.133 270.833 300.76L277.451 297.5L309.476 297L341.5 296.5L341.778 282.753L342.056 269.007L336.778 271.211C332.378 273.049 329.588 273.416 320 273.418C307.803 273.421 309.022 273.728 292 266.367C286.367 263.93 284.233 263.558 276 263.577C267.068 263.597 265.932 263.847 257 267.758C251.775 270.046 245.331 272.448 242.679 273.095C235.201 274.922 222.642 273.762 214.958 270.535C211.406 269.043 206.25 266.888 203.5 265.747C196.34 262.774 181.507 262.757 174.5 265.713C171.75 266.873 166.594 269.043 163.042 270.535C155.358 273.762 142.799 274.922 135.321 273.095C132.669 272.448 126.37 270.124 121.322 267.933C110.393 263.188 100.051 261.998 91.265 264.475ZM27.981 307.286C22.747 310.048 19.041 315.75 19.016 321.081C18.985 327.885 22.894 346.262 25.509 351.608C28.407 357.532 33.98 362.823 40.924 366.245L45.5 368.5H189H332.5L337.076 366.245C344.02 362.823 349.593 357.532 352.491 351.608C355.106 346.262 359.015 327.885 358.984 321.081C358.959 315.752 355.254 310.051 350 307.258L345.5 304.866L312.976 305.183L280.452 305.5L273.808 308.772C268.684 311.296 263.85 315.244 252.687 326.022C244.725 333.71 237.452 340 236.525 340C235.598 340 228.885 334.23 221.608 327.178C208.059 314.047 202.154 309.376 196 306.921C193.129 305.775 178.109 305.47 112.481 305.223L32.462 304.922L27.981 307.286Z" fill="black"/>
</svg>
