<svg width="262" height="378" viewBox="0 0 262 378" fill="none" xmlns="http://www.w3.org/2000/svg">
<path fill-rule="evenodd" clip-rule="evenodd" d="M110.625 1.554C71.968 9.235 40.471 36.67 27.909 73.603C24.514 83.586 22.01 97.693 22.004 106.874C22 113.156 21.936 113.304 17.581 117.138C12.396 121.702 6.27599 131.051 2.94299 139.5C0.900986 144.677 0.575998 147.215 0.573998 158C0.570998 169.186 0.849996 171.207 3.231 177.225C9.531 193.151 22.674 206.255 37 210.896C40.471 212.02 40.806 212.687 77 290.555C115.095 372.512 115.992 374.184 123.315 376.94C124.863 377.523 128.322 378 131 378C133.678 378 137.137 377.523 138.685 376.94C146.001 374.187 146.91 372.491 185 290.548C221.198 212.676 221.529 212.017 225 210.894C239.139 206.321 252.546 192.99 258.708 177.377C261.127 171.249 261.423 169.193 261.425 158.5C261.428 148.508 261.042 145.412 259.122 140C256.348 132.184 249.488 121.577 244.001 116.62C240.146 113.137 240 112.777 239.996 106.753C239.99 97.684 237.47 83.539 234.091 73.603C221.427 36.369 189.664 8.89399 150.75 1.51199C140.94 -0.349012 120.092 -0.327005 110.625 1.554ZM114.016 10.467C66.254 19.538 32.167 59.542 31.791 106.964L31.709 117.429L28.166 120.464C18.223 128.985 11.929 139.332 9.895 150.5C6.367 169.875 17.223 190.927 35.341 199.847C48.514 206.332 63.186 206.354 76.69 199.909C80.197 198.236 83.833 197.014 84.77 197.194C85.707 197.375 87.379 199.017 88.487 200.843C95.438 212.309 104.432 220.399 114.459 224.206C123.104 227.489 138.896 227.489 147.541 224.206C157.568 220.399 166.562 212.309 173.513 200.843C174.621 199.017 176.301 197.373 177.248 197.191C178.194 197.008 181.788 198.234 185.234 199.914C188.68 201.595 194.762 203.518 198.75 204.188C228.901 209.257 256.657 182.012 252.166 151.754C250.385 139.754 244.371 129.496 233.811 120.444L230.246 117.389L230.175 107.236C230.024 85.857 223.607 66.565 210.947 49.429C197.739 31.55 176.414 17.285 154.956 11.976C143.871 9.23399 124.306 8.51199 114.016 10.467ZM121.2 38.2C118.852 40.548 120.067 43.509 125.719 49.221C131.402 54.964 134.398 56.202 136.8 53.8C139.202 51.398 137.964 48.402 132.221 42.719C126.509 37.067 123.548 35.852 121.2 38.2ZM165.035 47.934C164.466 48.998 164 53.078 164 57C164 65.17 165.115 68 168.335 68C172.216 68 173 66.152 173 57C173 51.644 172.547 47.947 171.8 47.2C169.963 45.363 166.192 45.772 165.035 47.934ZM109.245 72.155C108.452 72.948 108 76.406 108 81.677C108 89.341 108.18 90.072 110.433 91.548C112.344 92.8 113.317 92.901 114.969 92.017C116.916 90.974 117.05 90.179 116.786 81.196L116.5 71.5L113.495 71.205C111.842 71.043 109.93 71.47 109.245 72.155ZM68.221 80.277C64.8 83.729 62 87.319 62 88.254C62 90.798 66.429 93.376 68.707 92.157C71.202 90.822 81 80.383 81 79.06C81 77.579 77.266 74 75.721 74C75.018 74 71.643 76.825 68.221 80.277ZM187.035 86.934C185.629 89.562 185.729 90.586 187.571 92.429C188.745 93.603 191.224 94 197.371 94C206.045 94 208 93.172 208 89.5C208 85.78 206.065 85 196.835 85C189.193 85 187.938 85.248 187.035 86.934ZM142.639 99.86C137.848 104.701 136.897 106.222 137.17 108.61C137.438 110.958 138.042 111.562 140.39 111.83C142.778 112.103 144.299 111.152 149.14 106.361C155.237 100.328 156.075 98.218 153.429 95.571C150.782 92.925 148.672 93.763 142.639 99.86ZM200.2 119.2C197.92 121.48 199.021 124.171 204.652 130.074C210.304 136 213.321 137.279 215.8 134.8C218.345 132.255 217.051 129.046 211.25 123.52C205.543 118.083 202.505 116.895 200.2 119.2ZM107.655 120.829C106.745 121.835 106 123.338 106 124.17C106 125.748 118.157 138 119.722 138C121.158 138 123.666 135.656 124.362 133.665C124.835 132.311 123.388 130.148 118.843 125.415C112.356 118.66 110.359 117.841 107.655 120.829ZM164.2 128.2C163.448 128.952 163 132.694 163 138.221C163 146.535 163.137 147.105 165.374 148.124C167.096 148.909 168.33 148.894 169.874 148.068C171.794 147.04 172 146.08 172 138.165C172 128.935 171.22 127 167.5 127C166.345 127 164.86 127.54 164.2 128.2ZM53.2 129.2C52.54 129.86 52 131.671 52 133.225C52 136.712 54.832 138 62.5 138C71.874 138 75.627 135.132 72.5 130.359C71.082 128.195 70.27 128 62.677 128C57.573 128 53.94 128.46 53.2 129.2ZM95.652 160.926C89.686 167.181 89.025 168.882 91.571 171.429C94.361 174.218 97.117 173.203 103.16 167.16C109.274 161.046 110.03 159.172 107.429 156.571C104.496 153.639 101.57 154.721 95.652 160.926ZM205.417 163.167C198.927 169.305 197.706 172.534 200.898 175.119C203.768 177.443 205.426 176.759 211.75 170.644C217.115 165.457 218.407 161.807 215.8 159.2C213.565 156.965 210.897 157.984 205.417 163.167ZM46.2 162.2C43.789 164.611 45.038 167.6 50.867 173.368C57.509 179.941 60.725 180.598 62.43 175.731C63.324 173.178 62.937 172.494 57.481 166.981C51.603 161.041 48.622 159.778 46.2 162.2ZM132.223 175.557C129.524 177.447 129.369 180.119 131.829 182.345C133.176 183.564 135.564 184 140.894 184C149.677 184 152 182.954 152 179C152 177.127 151.302 175.697 150.066 175.035C146.992 173.39 134.807 173.746 132.223 175.557ZM78 209.745C71.756 212.455 64.636 213.976 58.143 213.988C53.453 213.997 51.921 214.328 52.3 215.25C58.076 229.298 121.924 364.227 123.634 366C125.569 368.006 127.025 368.5 131 368.5C134.977 368.5 136.429 368.007 138.359 366C140.066 364.225 204.127 228.863 209.702 215.25C210.08 214.328 208.546 213.997 203.857 213.988C197.355 213.976 190.356 212.485 183.828 209.722L180.155 208.167L177.687 211.833C173.991 217.325 167.193 223.842 160.828 227.997C143.46 239.333 118.721 239.371 101.138 228.089C96.586 225.167 86.251 215.078 82.982 210.363C81.575 208.333 81.324 208.302 78 209.745Z" fill="black"/>
</svg>
