<svg width="366" height="378" viewBox="0 0 366 378" fill="none" xmlns="http://www.w3.org/2000/svg">
<path fill-rule="evenodd" clip-rule="evenodd" d="M151.331 1.53306C109.26 6.94706 70.17 21.2901 37 43.4841C10.891 60.9541 3.26099 68.6081 0.973991 79.6251C-0.950009 88.8921 0.732994 93.7021 12.371 112.207C18.007 121.168 58.062 184.637 101.382 253.25C175.935 371.333 180.297 378 182.996 378C185.697 378 190.511 370.612 274.078 238.25C322.604 161.387 362.988 96.9251 363.819 95.0001C364.651 93.0751 365.349 88.504 365.371 84.843C365.455 71.144 358.415 63.0911 329.633 43.9611C294.557 20.6481 256.886 6.82405 214.03 1.53805C198.858 -0.332947 165.857 -0.335937 151.331 1.53306ZM164.5 9.60007C139.147 12.1871 114.405 17.5091 95.5 24.4431C71.625 33.2001 41.649 50.1101 21.79 66.0251C12.327 73.6081 9.54499 78.5001 10.2 86.4041C10.577 90.9451 11.822 93.5591 19.069 105.025C23.706 112.362 27.82 118.843 28.211 119.429C28.65 120.085 30.565 118.924 33.211 116.396C55.416 95.1891 91.349 75.4871 124 66.6181C148.421 59.9841 181.608 57.2951 206.238 59.9541C242.651 63.8851 276.994 76.2761 307 96.3081C315.718 102.128 330.418 113.645 333.924 117.402C335.258 118.831 336.644 120 337.005 120C337.366 120 341.646 113.613 346.515 105.807C354.108 93.6331 355.429 90.8671 355.803 86.3681C356.681 75.7781 350.509 69.0121 324 51.5001C292.206 30.4981 258.619 17.6381 220.5 11.8731C208.049 9.99006 174.161 8.61507 164.5 9.60007ZM166.186 68.6571C163.052 69.1101 162.907 69.3101 163.527 72.3181C166.697 87.7071 178.646 98.0991 194 98.8221C204.272 99.3061 211.579 96.5521 218.569 89.5621C224.078 84.0531 228.882 74.1151 226.647 72.8521C221.833 70.1311 177.344 67.0451 166.186 68.6571ZM139.5 72.6011C125.549 75.4741 105.337 82.0931 92.526 87.9861C87.591 90.2571 83.435 92.2311 83.292 92.3741C83.149 92.5171 85.397 95.079 88.286 98.067C100.796 111.004 103.787 129.698 95.918 145.78C90.143 157.582 77.561 166.928 65.248 168.561C62.362 168.944 60 169.422 60 169.624C60 170.159 113.075 254.326 114.128 255.459C114.68 256.054 115.653 255.483 116.687 253.959C119.893 249.235 127.549 242.888 133.733 239.827C138.942 237.249 140.795 236.822 145.016 237.227C152.877 237.983 156.956 242.778 158.491 253.07L159.173 257.64L163.837 255.245C167.554 253.336 169.648 252.928 174.16 253.232C181.797 253.748 186.919 257.19 190.377 264.129C195.606 274.622 192.891 284.569 183.112 290.747C180.025 292.697 177.34 294.424 177.145 294.585C176.95 294.745 178.383 296.275 180.33 297.985C184.795 301.905 187.484 308.606 186.563 313.517C185.229 320.624 176.155 327.589 165.69 329.536C162.814 330.071 162.025 330.624 162.473 331.789C163.369 334.125 182.422 364 183.015 364C183.299 364 195.078 345.711 209.191 323.358L234.85 282.716L229.434 277.766C225.687 274.341 222.86 270.473 220.259 265.21C216.628 257.863 216.5 257.242 216.5 247C216.5 236.775 216.633 236.127 220.226 228.858C229.821 209.443 251.093 200.444 271 207.378C275.125 208.815 278.897 210.106 279.382 210.245C280.286 210.507 303 175.569 303 173.917C303 173.413 302.312 173 301.471 173C298.198 173 287.454 166.573 282.882 161.879C275.841 154.65 271.884 145.694 271.252 135.555C270.392 121.772 274.428 111.614 284.579 102.014C287.623 99.1351 289.975 96.6831 289.807 96.5661C287.058 94.6451 275.916 89.1181 267.841 85.6691C259.536 82.1221 239.336 75.0001 237.582 75.0001C237.365 75.0001 236.477 77.0881 235.607 79.6401C228.921 99.2621 208.669 111.621 188.905 108.14C175.561 105.79 164.469 97.6601 158.6 85.9281C156.685 82.0991 154.815 76.9491 154.445 74.4831C154.075 72.0171 153.262 70.0291 152.636 70.0651C152.011 70.1011 146.1 71.2431 139.5 72.6011ZM65.916 102.869C58.115 107.877 40.111 122.048 36.201 126.257L33.903 128.732L42.9 142.951C47.848 150.772 52.471 157.863 53.173 158.709C54.866 160.749 65.304 159.844 71.452 157.124C77.736 154.344 84.514 147.689 87.73 141.142C90.107 136.301 90.497 134.294 90.475 127C90.446 116.946 88.077 111.031 81.406 104.356C74.531 97.477 74.343 97.459 65.916 102.869ZM295.973 104.653C281.939 114.038 276.516 131.075 282.94 145.597C286.894 154.535 298.163 163.596 306.125 164.239C309.298 164.495 309.586 164.147 320.807 146.51L332.252 128.52L326.376 123.15C319.101 116.502 301.157 103 299.597 103C298.963 103 297.332 103.744 295.973 104.653ZM159.112 128.581C131.904 135.898 116.341 165.453 126.042 191.382C131.894 207.025 144.447 211.153 155.163 200.96C157.454 198.78 159.415 197.11 159.518 197.248C159.622 197.387 161.303 200.025 163.253 203.112C172.187 217.253 191.259 216.017 199.092 200.79C201.741 195.64 201.529 189.382 198.504 183.419C197.131 180.714 196.009 178.5 196.009 178.5C205.424 178.5 211.376 176.129 214.832 171C219.639 163.868 215.566 151.559 204.912 141.019C192.861 129.097 175.114 124.277 159.112 128.581ZM163 137.367C151.266 139.927 141.249 147.94 136.176 158.825C129.606 172.923 133.869 197 142.936 197C147.572 197 150.795 192.933 153.633 183.5C154.353 181.109 155.172 180.438 157.673 180.194C160.677 179.9 161.03 180.281 166.018 189.194C168.883 194.312 172.133 199.489 173.239 200.698C179.217 207.229 191.5 201.75 191.348 192.62C191.318 190.812 189.314 186.026 186.581 181.236C179.728 169.226 181.061 165.496 191.327 167.959C197.877 169.53 204.93 168.817 206.693 166.405C210.456 161.258 199.889 146.301 188.5 140.652C183.913 138.377 173.844 135.882 170.066 136.084C169.205 136.13 166.025 136.708 163 137.367ZM249.929 215.312C234.874 219.553 225.571 231.656 225.571 247C225.571 252.978 226.101 255.646 228.183 260.148C230.544 265.251 237.877 274.023 239.75 273.985C240.607 273.967 274.277 220.603 274.233 219.332C274.185 217.98 265.346 215.048 259.715 214.517C256.847 214.246 252.443 214.604 249.929 215.312ZM138.31 247.946C130.335 251.567 120.031 263.032 121.443 266.713C121.794 267.627 129.552 280.215 138.684 294.687L155.287 321H159.133C163.539 321 172.326 317.92 175.112 315.398C180.041 310.938 175.16 303.198 166.04 301.01C160.928 299.783 159.287 297.809 160.424 294.25C160.732 293.288 165.233 290.133 170.426 287.241C180.623 281.562 184 278.271 184 274.013C184 270.663 180.287 264.971 176.97 263.239C173.496 261.424 170.652 262.192 161.222 267.495C156.682 270.048 152.012 271.992 150.838 271.818C147.346 271.298 146.394 268.715 147.781 263.527C149.661 256.498 149.352 250.352 147 248C144.545 245.545 143.611 245.539 138.31 247.946Z" fill="black"/>
</svg>
