<svg viewBox="0 0 467 473" fill="none" xmlns="http://www.w3.org/2000/svg" >
<path d="M179.163 5.02074C179.163 5.02074 169.999 9.75016 165.663 14.5207C157.272 23.7527 156.163 45.0207 156.163 45.0207C119.07 109.91 102.553 147.615 81.6633 217.521C81.6633 217.521 53.6633 290.021 50.1633 294.521C46.6633 299.021 43.1543 300.92 38.6633 305.021C38.6633 305.021 30.6633 317.521 30.6633 320.521C30.6633 323.521 35.1633 323.021 35.1633 325.521C35.1633 328.021 33.1633 333.021 30.6633 335.021C28.1633 337.021 23.6633 338.521 20.6633 343.521C17.6633 348.521 20.6633 355.521 20.6633 359.021C20.6633 362.521 2.66327 390.021 0.163266 403.521C-2.33673 417.021 24.6632 443.021 27.1633 451.021C29.6633 459.021 23.1633 459.521 24.1633 466.021C25.1633 472.521 33.1633 473.021 38.6633 472.021C44.1633 471.021 46.6633 464.021 50.1633 462.521C53.6633 461.021 63.1633 468.021 71.1633 466.021C79.1633 464.021 81.1633 460.021 88.1633 458.521C95.1633 457.021 95.6633 462.521 99.6633 462.521C103.663 462.521 115.163 458.521 115.163 458.521L380.663 331.021L452.163 291.021C463.911 281.416 466.918 275.134 466.663 262.521C444.143 222.726 427.412 202.098 392.163 167.521L252.163 34.5207C252.163 34.5207 205.163 -0.979279 195.163 0.0207376C185.163 1.02075 179.163 5.02074 179.163 5.02074Z" fill="#F8EDEC" />
</svg>