<svg width="378" height="379" viewBox="0 0 378 379" fill="none" xmlns="http://www.w3.org/2000/svg">
<path fill-rule="evenodd" clip-rule="evenodd" d="M275 0.584017C273.625 0.740017 214 1.39102 142.5 2.02902C16.407 3.15502 12.373 3.24902 8.28799 5.16602C2.52199 7.87102 0 12.232 0 19.5C0 26.252 2.169 30.48 7.181 33.5C9.837 35.101 12.882 35.6 22.428 36L34.355 36.5L35.488 41.542C36.11 44.315 39.024 50.75 41.963 55.842C46.792 64.209 47.352 65.805 47.776 72.414C48.329 81.025 47.21 85.152 42.059 93.5C36.935 101.806 34.94 107.322 34.301 114.96C33.58 123.583 35.819 132.162 41.121 141.086C46.571 150.26 47.912 154.292 47.912 161.5C47.912 168.723 46.546 172.819 41.162 181.738C38.917 185.457 36.449 190.975 35.677 194L34.274 199.5L18.458 199.776C8.86899 199.944 2.122 200.484 1.321 201.149C-0.516001 202.673 -0.398995 216.448 1.54601 227.619C3.43901 238.495 8.64199 254.333 13.551 264.16C26.22 289.522 48.472 311.775 73.84 324.449C82.038 328.544 99.246 334.547 105.75 335.581L110 336.256V355.928C110 369.895 110.348 375.948 111.2 376.8C112.937 378.537 265.063 378.537 266.8 376.8C267.652 375.948 268 369.895 268 355.928V336.256L272.25 335.581C278.753 334.548 295.961 328.545 304.16 324.449C329.635 311.724 351.724 289.635 364.449 264.16C369.358 254.333 374.561 238.495 376.454 227.619C378.319 216.905 378.502 202.902 376.8 201.2C375.88 200.28 347.311 200 254.3 200C136.732 200 133 199.943 133 198.141C133 197.118 134.41 193.631 136.133 190.391C146.151 171.558 145.5 173.534 145.5 161.974C145.5 150.377 146.202 152.442 135.141 131.5C132.914 127.283 132.504 125.247 132.524 118.5C132.546 111.272 132.876 109.921 135.944 104.5C144.595 89.211 145.346 87.234 145.8 78.58C146.342 68.266 144.687 62.214 138.482 51.82C135.96 47.597 133.625 42.463 133.292 40.412L132.687 36.683L169.093 37.335C189.117 37.694 241.95 38.285 286.5 38.649C361.626 39.262 367.739 39.187 370.794 37.607C376.472 34.67 377.992 30.891 377.996 19.7C378.001 8.54301 376.759 5.04302 371.701 1.96002C368.64 0.093024 366.508 0.0140242 323 0.154024C297.975 0.234024 276.375 0.428017 275 0.584017ZM167.199 11.035C22.617 12.672 12.775 12.894 10.949 14.546C8.38401 16.868 8.393 22.14 10.966 24.469C12.816 26.143 22.66 26.356 178.216 28.084C269.122 29.094 348.53 29.938 354.679 29.96C368.634 30.01 369 29.743 369 19.5C369 14.145 368.572 11.715 367.429 10.571C365.539 8.68102 377.438 8.65402 167.199 11.035ZM44.506 39.226C44.878 41.027 46.882 45.425 48.961 49C55.078 59.523 55.87 61.422 56.93 68.124C58.216 76.252 56.91 85.781 53.673 91.895C43.553 111.013 44 109.83 44 117.471C44 125.887 45.017 129.294 49.979 137.5C54.667 145.254 55.819 148.202 56.998 155.472C58.378 163.973 56.732 172.925 52.309 180.982C46.439 191.673 45.139 194.362 44.445 197.25L43.783 200H61.264H78.744L79.357 196.172C79.693 194.067 81.326 189.792 82.984 186.672C84.643 183.552 87.35 178.462 89 175.359C91.534 170.594 92 168.599 92 162.508C92 153.926 90.958 150.554 85.729 142.225C80.621 134.09 78.896 128.261 78.819 118.885C78.741 109.51 79.85 105.935 86.362 94.548C91.037 86.374 91.514 84.95 91.857 78.158C92.315 69.09 91.067 64.641 85.667 56.09C83.343 52.411 80.793 46.648 79.877 43.007L78.24 36.5L61.035 36.226L43.831 35.952L44.506 39.226ZM88 37.851C88 40.057 90.75 46.145 94.661 52.596C100.19 61.717 102.433 70.27 101.673 79.344C101.096 86.242 99.354 90.658 91.793 104.39C89.256 108.997 88.466 111.754 88.167 117.049C87.703 125.264 88.924 129.347 94.59 138.524C103.243 152.542 104.208 166.462 97.429 179.49C90.107 193.562 89.141 195.541 88.509 197.75L87.865 200H105.269H122.672L124.288 194.25C125.176 191.087 127.938 185.125 130.425 181C138.304 167.934 138.908 157.591 132.439 146.469C124.003 131.963 123.5 130.413 123.5 118.937C123.5 107.384 122.802 109.434 133.859 88.5C136.097 84.263 136.492 82.279 136.448 75.5C136.392 66.977 135.937 65.702 128.639 53.635C126.688 50.41 124.55 45.347 123.887 42.385L122.682 37H105.341C95.803 37 88 37.383 88 37.851ZM9.487 216.25C13.435 252.325 30.902 283.152 59.731 304.924C70.072 312.733 88.472 321.484 102.5 325.264L114.5 328.497H189H263.5L275.227 325.323C311.096 315.615 340.474 291.702 356.011 259.566C363.174 244.75 366.75 232.36 368.513 216.25L369.196 210H189H8.804L9.487 216.25ZM119 353.75V369H189H259V353.75V338.5H189H119V353.75Z" fill="black"/>
</svg>
