<svg width="378" height="379" viewBox="0 0 378 379" fill="none" xmlns="http://www.w3.org/2000/svg">
<path fill-rule="evenodd" clip-rule="evenodd" d="M34.5 2.40401C22.655 6.16601 10.657 15.819 5.728 25.554C0.047997 36.77 0 37.306 0 89.592C0 134.118 0.145004 138.289 1.895 143.909C6.55 158.866 19.099 171.069 34.5 175.613C39.865 177.197 45.629 177.39 89 177.442C136.977 177.499 137.564 177.476 143.419 175.246C159.736 169.031 171.518 155.86 174.949 140C175.803 136.048 176.048 120.709 175.819 85.5L175.5 36.5L171.772 28.692C167.428 19.595 159.114 10.611 151.446 6.728C140.2 1.033 139.762 0.994004 87.068 1.067C50.722 1.117 37.493 1.45301 34.5 2.40401ZM244.984 2.85201C237.802 6.66801 237.402 8.145 236.662 33.569C236.298 46.084 236 70.356 236 87.508C236 104.66 235.71 122.778 235.356 127.772L234.711 136.85L221.403 137.175C212.189 137.4 207.695 137.9 206.797 138.8C204.895 140.706 204.895 239.294 206.797 241.2C207.69 242.095 212.142 242.603 221.095 242.83L234.095 243.161L233.39 305.957L232.684 368.753L234.858 372.27C238.21 377.694 242.055 379.001 254.651 378.996C266.882 378.992 270.359 377.694 274.039 371.759C276.031 368.547 276.05 367.586 275.374 305.75L274.688 243H291.93H309.173L308.836 306.976L308.5 370.953L312.267 374.726L316.033 378.5H329.5H342.967L346.733 374.726L350.5 370.953L350.159 306.976L349.819 243H361.344C367.683 243 374.024 242.561 375.435 242.025L378 241.05V190.084C378 150.409 377.723 138.939 376.75 138.309C376.063 137.864 369.386 137.346 361.913 137.158L348.326 136.816L347.666 74.816C346.94 6.49001 347.125 8.361 340.631 3.737C335.915 0.379002 324.9 0.104008 319.588 3.21201C311.747 7.79901 312.077 4.93801 311.334 74.816L310.672 137H291.986H273.301L272.571 74.75C271.867 14.677 271.771 12.373 269.803 8.868C268.682 6.87 266.069 4.283 263.996 3.118C259.086 0.357999 249.918 0.230008 244.984 2.85201ZM38.746 11.086C28.678 13.458 18.247 21.607 13.686 30.662C11.224 35.548 9 44.04 9 48.549C9 50.875 9.303 51 14.929 51C22.767 51 25.473 53.379 22.965 58.066C22.104 59.674 20.832 60 15.411 60H8.89301L9.201 99.25C9.542 142.789 9.44201 142.08 16.699 152.375C22.571 160.706 36.026 168 45.521 168H49V160.468C49 153.582 49.193 152.861 51.25 152.063C52.737 151.486 54.179 151.622 55.5 152.463C57.14 153.506 57.553 155.02 57.794 160.868L58.088 168H95.862C137.622 168 140.28 167.687 149.184 161.719L153.867 158.58L149.934 154.312C145.945 149.985 144.981 146.419 147.2 144.2C149.306 142.094 151.93 142.894 156.385 147.001L160.726 151.002L163.613 144.751L166.5 138.5L166.825 112.75L167.149 87H161.646C154.251 87 151.58 84.521 154.035 79.934C154.884 78.349 156.162 78 161.127 78H167.184L166.842 58.75C166.5 39.513 166.498 39.495 163.326 32.799C157.77 21.072 148.018 13.454 135.467 11.037C132.185 10.404 123.875 10.025 117 10.194L104.5 10.5L104.186 15.475C103.828 21.144 102.692 23 99.578 23C96.171 23 95 21.031 95 15.3V10L68.75 10.1C54.313 10.156 40.811 10.599 38.746 11.086ZM248.189 12.039C246.136 13.951 246 14.96 245.996 28.289C245.993 36.105 245.085 115.4 243.977 204.5L241.962 366.5L244.092 368.25C246.861 370.525 261.575 370.763 264.559 368.58C266.816 366.929 266.849 383.334 264.129 153.155L262.483 13.809L260.13 11.905C256.964 9.341 251.013 9.408 248.189 12.039ZM323.455 12.455L321 14.909L320.972 37.705C320.957 50.242 320.075 129.35 319.012 213.5L317.08 366.5L319.151 368.25C320.759 369.609 323.071 370 329.5 370C335.929 370 338.241 369.609 339.848 368.25L341.919 366.5L339.986 214C338.923 130.125 338.042 51.017 338.027 38.205L338 14.909L335.545 12.455C333.851 10.76 331.979 10 329.5 10C327.021 10 325.149 10.76 323.455 12.455ZM126.2 23.2C124.035 25.365 124.938 28.533 128.792 32.297C132.677 36.09 135.676 36.924 137.8 34.8C139.965 32.635 139.062 29.467 135.208 25.703C131.323 21.91 128.324 21.076 126.2 23.2ZM64 26C61.361 28.639 61.455 29.309 65.035 33.388L68.071 36.845L61.824 40.172C44.916 49.179 33.414 67.399 32.741 86.241L32.5 92.981L27.307 92.991C23.08 92.998 21.824 93.414 20.557 95.223C18.553 98.083 18.592 98.592 21 101C22.523 102.523 24.333 103 28.594 103C33.55 103 34.254 103.256 34.774 105.245C35.097 106.481 37.082 110.927 39.184 115.127C42.005 120.764 44.818 124.473 49.931 129.296C59.365 138.196 66.52 141.535 82.75 144.612C84.756 144.992 85 145.629 85 150.484C85 154.844 85.385 156.136 86.934 156.965C91.446 159.379 94 156.737 94 149.657V144.458L99.87 143.342C111.855 141.064 126.146 131.707 133.068 121.606L135.437 118.148L139.696 122.074C144.482 126.486 147.191 126.993 149.368 123.885C151.335 121.076 150.63 119.442 144.885 113.493L140.049 108.487L141.594 103.493C143.894 96.061 143.654 81.076 141.105 73C133.57 49.129 112.97 33.927 88 33.81L78.5 33.766L73.31 28.883C70.455 26.197 67.643 24 67.06 24C66.477 24 65.1 24.9 64 26ZM31.75 27.08C28.94 28.717 29.679 32.638 33.616 36.997C37.5 41.296 41.67 42.307 43.989 39.513C45.885 37.229 44.434 33.625 40.01 29.628C35.772 25.8 34.58 25.432 31.75 27.08ZM74.438 45.035C61.083 49.27 50.137 59.527 44.833 72.775C42.937 77.512 42.538 80.397 42.521 89.5C42.501 99.883 42.684 100.889 45.788 107.443C54.208 125.224 69.012 134.931 87.782 134.979C114.891 135.048 135.486 113.176 133.756 86.153C131.859 56.532 102.456 36.15 74.438 45.035ZM149.75 44.08C147.367 45.468 147.231 57.088 149.571 59.429C153.669 63.526 157 59.954 157 51.464C157 46.166 156.668 44.893 155.066 44.035C152.702 42.77 151.988 42.776 149.75 44.08ZM67.566 64.72C62.862 67.184 62.285 69.971 62.441 89.5C62.647 115.442 61.664 114.433 86.888 114.589C97.125 114.652 106.489 114.341 107.698 113.897C108.906 113.453 110.701 111.86 111.686 110.357C113.227 108.005 113.492 105.111 113.589 89.562C113.71 70.253 113.12 67.239 108.74 64.824C105.451 63.011 70.994 62.923 67.566 64.72ZM72.146 73.324C71.256 74.396 71.245 76.567 72.099 82.31C72.946 88.001 72.935 91.552 72.056 96.599C70.451 105.818 71.245 106.582 80.881 105.086C86.076 104.28 89.924 104.28 95.119 105.086C104.755 106.582 105.549 105.818 103.944 96.599C103.062 91.535 103.054 88.005 103.91 82.25C105.4 72.231 104.937 71.727 95.5 73.084C89.174 73.994 83.201 73.786 75.909 72.403C74.365 72.11 72.845 72.482 72.146 73.324ZM25.571 133.571C23.111 136.032 23.657 137.719 28.637 143.043C33.302 148.03 36.418 149.182 38.8 146.8C41.179 144.421 40.087 140.824 35.632 136.368C31.029 131.766 28.171 130.972 25.571 133.571ZM119.2 146.2C116.941 148.459 117.932 151.706 122.003 155.384C126.419 159.373 128.081 159.776 130.429 157.429C132.886 154.971 132.31 152.709 128.208 148.703C124.323 144.91 121.324 144.076 119.2 146.2ZM215 190V233H224.342H233.684L234.339 214.25C234.699 203.938 234.996 184.587 234.997 171.25L235 147H225H215V190ZM273.37 149.25C273.701 150.488 273.979 169.837 273.986 192.25L274 233H291.35H308.701L309.35 223.846C309.708 218.812 310 199.462 310 180.846V147H291.383H272.767L273.37 149.25ZM349 180.846C349 199.462 349.292 218.812 349.65 223.846L350.299 233H359.65H369V190V147H359H349V180.846ZM40.5 202.956C25.106 205.59 11.993 215.125 5.19901 228.624C0.017005 238.918 -0.165 241.315 0.181 294.5L0.5 343.5L4.228 351.308C8.58 360.421 16.887 369.389 24.596 373.295C35.988 379.068 36.333 379.097 90.629 378.786L140.5 378.5L148.308 374.772C157.405 370.428 166.389 362.114 170.272 354.446C175.953 343.227 176 342.706 176 290.287C176 243.995 175.912 241.672 173.922 235.718C168.913 220.726 156.916 209 142 204.518C137.327 203.114 129.656 202.808 91 202.483C65.975 202.272 43.25 202.485 40.5 202.956ZM35.329 213.934C29.077 216.185 22.214 220.775 18.455 225.219C14.115 230.352 10.083 239.917 9.36501 246.783L8.715 253H15.379C21.422 253 22.144 253.221 23.124 255.374C23.909 257.096 23.894 258.33 23.068 259.874C22.086 261.708 21.035 262 15.411 262H8.89301L9.19701 301.25L9.5 340.5L12.674 347.201C18.18 358.822 27.771 366.376 40.311 368.967C48.578 370.674 49 370.339 49 362.067C49 356.173 49.305 354.907 50.934 354.035C55.842 351.408 58 354.184 58 363.124V370.106L97.75 369.803C136.694 369.506 137.6 369.454 142.445 367.22C145.165 365.966 148.918 363.775 150.785 362.35L154.181 359.76L150.091 355.592C145.944 351.367 145.023 348.377 147.2 346.2C149.324 344.076 152.523 344.912 156 348.5C157.866 350.425 159.745 352 160.176 352C161.487 352 164.686 344.817 165.877 339.201C166.517 336.18 167 324.248 167 311.451V289H161.655C156.336 289 153 287.139 153 284.171C153 281.274 156.999 279 162.094 279H167.187L166.788 260.25C166.453 244.541 166.072 240.742 164.439 236.824C159.704 225.465 151.222 217.499 140.145 214.005C134.971 212.373 131.02 212 118.895 212H104V217.3C104 222.994 102.828 225 99.5 225C96.172 225 95 222.994 95 217.3V212L67.75 212.036C43.752 212.068 39.883 212.294 35.329 213.934ZM126.2 225.2C124.035 227.365 124.938 230.533 128.792 234.297C132.677 238.09 135.676 238.924 137.8 236.8C139.965 234.635 139.062 231.467 135.208 227.703C131.323 223.91 128.324 223.076 126.2 225.2ZM63.557 228.223C61.485 231.18 61.528 231.393 65 235.348L68.001 238.765L62.453 241.479C55.613 244.826 45.777 253.773 41.354 260.672C36.677 267.967 33.097 279.306 32.771 287.853L32.5 294.982L27.405 294.991C20.969 295.002 18.014 297.54 19.82 301.504C20.86 303.786 21.504 304 27.345 304H33.732L35.86 309.835C42.475 327.979 58.815 341.906 77.5 345.326L84.5 346.607L84.767 350.553C85.195 356.905 85.856 358.729 87.924 359.27C88.995 359.55 90.8 359.128 91.935 358.333C93.575 357.184 94 355.808 94 351.643V346.4L99.905 345.181C109.035 343.295 119.624 337.486 126.562 330.556C129.897 327.225 133.343 323.375 134.22 322L135.815 319.5L140.374 323.926C144.541 327.97 145.152 328.252 147.467 327.197C151.656 325.289 150.846 321.42 145.025 315.525L140.049 310.487L141.589 305.493C143.722 298.578 143.697 283.917 141.539 276.45C135.61 255.924 119.452 240.71 99 236.395C94.11 235.364 89.221 235.016 84.951 235.395L78.402 235.977L73.488 230.988C68.073 225.49 65.895 224.884 63.557 228.223ZM31.2 229.2C28.971 231.429 29.98 234.564 34.288 238.792C38.623 243.047 41.609 243.991 43.8 241.8C46.029 239.571 45.02 236.436 40.712 232.208C36.377 227.953 33.391 227.009 31.2 229.2ZM73.762 246.942C53.841 253.31 40.883 272.594 42.244 293.847C44.53 329.549 84.079 348.821 114.024 328.825C132.612 316.413 139.313 290.712 129.232 270.5C123.647 259.301 113.534 250.481 102.299 247.011C93.941 244.429 81.715 244.4 73.762 246.942ZM149.2 246.2C147.634 247.766 147.634 259.234 149.2 260.8C149.86 261.46 151.345 262 152.5 262C155.929 262 157 259.976 157 253.5C157 247.024 155.929 245 152.5 245C151.345 245 149.86 245.54 149.2 246.2ZM24.98 336.038C23.416 338.96 24.473 341.259 29.516 345.908C34.064 350.1 36.684 350.916 38.8 348.8C41.236 346.364 40.12 342.534 35.712 338.208C30.869 333.455 26.802 332.633 24.98 336.038ZM119.571 347.571C116.896 350.247 117.702 353.498 122.003 357.384C126.566 361.506 126.759 361.557 129.777 359.443C133.016 357.175 132.514 354.278 128.118 349.882C123.899 345.663 121.994 345.148 119.571 347.571Z" fill="black"/>
</svg>
