<svg width="440" height="299" viewBox="0 0 440 299" fill="none" xmlns="http://www.w3.org/2000/svg">
<path fill-rule="evenodd" clip-rule="evenodd" d="M195.978 1.99391C192.565 3.07491 186.786 5.96292 183.135 8.41092L176.499 12.8609L172.841 9.93391C160.613 0.146911 144.682 -0.0510864 132.255 9.42791C127.291 13.2139 122.788 20.7829 121.373 27.7189C120.207 33.4399 119.861 33.9299 113.773 38.5069C106.506 43.9689 99.6755 52.6369 95.6835 61.4629C94.1415 64.8719 91.7705 68.2819 90.2515 69.2779C85.5545 72.3559 65.6535 92.0719 58.0085 101.222C28.2235 136.873 7.73853 184.561 1.11953 233.663C-0.199467 243.447 -0.311468 247.168 0.565532 252.163C3.03953 266.256 12.3555 278.484 25.3045 284.633C31.6215 287.633 34.2835 288.242 46.3595 289.445C137.759 298.557 241.004 300.516 334.183 294.906C359.566 293.377 399.298 290.052 406.681 288.838C422.589 286.223 434.267 273.821 438.169 255.398C439.934 247.068 440.038 240.638 438.635 226.771C434.104 181.978 415.392 143.123 383.524 112.336C359.083 88.7239 330.498 73.3629 296.336 65.4849C293.978 64.9409 293.587 64.4349 294.061 62.5439C294.376 61.2879 294.23 57.7769 293.736 54.7419C290.934 37.5249 277.477 25.2429 260.2 24.1339C252.875 23.6639 252.741 23.6049 250.032 19.6969C244.203 11.2849 233.725 4.09691 223.183 1.27591C215.878 -0.678094 203.367 -0.348092 195.978 1.99391ZM202.417 13.9399C195.737 15.6259 190.347 19.0539 184.158 25.5559C175.585 34.5599 174.049 34.4099 167.388 23.9149C166.164 21.9859 163.168 19.4049 160.713 18.1649C147.972 11.7279 134.524 20.2579 134.057 35.0719C133.958 38.2179 133.608 41.2269 133.28 41.7579C132.952 42.2899 130.162 44.1469 127.082 45.8849C119.19 50.3389 112.954 57.1619 108.807 65.8799C105.724 72.3619 105.204 74.5489 104.857 82.4859C104.338 94.3399 106.52 102.915 110.054 102.915C113.513 102.915 123.662 106.635 127.957 109.478L131.734 111.977L136.324 107.64L140.914 103.304L138.109 97.8589C135.791 93.3589 135.297 91.1139 135.259 84.9149C135.183 72.7319 141.128 62.8409 151.812 57.3729C154.979 55.7519 157.266 53.5959 159.055 50.5429C164.713 40.8889 175.626 35.1129 186.158 36.1999C191.5 36.7519 200.296 40.5389 202.554 43.2599C203.641 44.5689 204.439 44.3619 208.836 41.6289C214.793 37.9259 223.849 36.8679 231.472 38.9849C237.88 40.7649 246.643 49.5029 248.709 56.1719L250.183 60.9289L262.683 61.4269C269.558 61.7009 276.421 62.1839 277.933 62.4999C280.559 63.0479 280.683 62.8989 280.683 59.1909C280.683 54.0809 276.346 45.5219 272.125 42.3029C267.066 38.4439 260.406 36.7849 253.012 37.5429C245.653 38.2969 245.009 37.9259 240.832 30.5239C235.107 20.3819 224.913 14.1139 212.973 13.3979C209.239 13.1739 204.489 13.4179 202.417 13.9399ZM177.183 51.0819C173.126 53.3259 170.708 56.3229 169.135 61.0589C168.248 63.7299 167.44 65.9149 167.339 65.9149C167.237 65.9149 164.73 66.8009 161.765 67.8849C152.794 71.1639 148.683 76.3589 148.683 84.4149C148.683 89.7219 151.143 95.3589 152.976 94.2499C153.64 93.8479 157.249 91.5429 160.997 89.1269C178.28 77.9879 202.971 68.4409 224.413 64.6079C231.16 63.4019 236.679 62.1899 236.678 61.9149C236.676 61.6399 235.781 59.9479 234.688 58.1559C229.022 48.8619 217.014 48.6769 211.258 57.7959C206.445 65.4209 201.437 65.5829 197.141 58.2529C195.702 55.7979 193.098 52.9199 191.354 51.8559C187.83 49.7069 180.403 49.3009 177.183 51.0819ZM234.683 76.3539C183.099 83.7909 138.503 113.649 112.183 158.371C98.5725 181.498 91.5765 204.785 89.6415 233.415C89.0465 242.215 88.1145 251.735 87.5705 254.57C86.3245 261.066 82.7295 268.332 78.0645 273.782C76.0735 276.108 74.6105 278.163 74.8135 278.35C75.3185 278.813 116.229 281.652 143.683 283.129C173.07 284.709 276.37 284.672 306.183 283.07C352.943 280.557 402.887 276.527 408.288 274.831C413.188 273.292 418.995 267.639 422.219 261.27C425.154 255.472 425.183 255.255 425.144 238.915C425.117 227.47 424.57 219.658 423.36 213.415C410.066 144.838 358.893 92.4969 291.295 78.3369C276.089 75.1509 249.486 74.2189 234.683 76.3539ZM79.6785 97.5449C47.9745 130.376 26.4245 172.359 17.1235 219.415C11.7805 246.443 12.6805 255.375 21.7465 265.295C29.6115 273.9 39.8955 277.258 51.1985 274.912L57.0915 273.688L54.1365 271.553C41.2815 262.262 35.2015 248.997 37.7175 235.728C38.6065 231.043 38.4885 230.474 36.0265 227.554C32.2315 223.053 30.6815 218.736 30.6925 212.697C30.7045 205.83 34.2765 198.089 39.1455 194.375C41.1685 192.832 43.8875 189.47 45.1885 186.902C47.7265 181.896 52.7215 176.964 57.9455 174.307C59.7265 173.401 61.3115 172.551 61.4695 172.418C61.6265 172.284 60.6145 168.775 59.2195 164.619C51.4965 141.614 61.6255 116.953 82.9375 106.871C86.3725 105.246 89.9435 103.916 90.8735 103.916C93.3615 103.915 93.4285 103.178 91.7275 94.5449L90.1765 86.6749L79.6785 97.5449ZM275.04 94.9069C273.861 95.3819 272.174 96.8039 271.29 98.0659C266.193 105.342 274.543 114.624 282.489 110.515C285.756 108.826 286.683 107.146 286.683 102.915C286.683 98.7159 285.759 97.0059 282.611 95.3779C279.438 93.7369 278.138 93.6559 275.04 94.9069ZM204.04 109.885C198.275 112.269 197.04 119.426 201.606 123.992C204.864 127.25 207.415 127.622 211.611 125.452C214.831 123.787 215.683 122.125 215.683 117.508C215.683 112.049 209.15 107.772 204.04 109.885ZM90.9845 118.018C83.9015 120.74 76.4095 127.71 73.0355 134.713C68.0255 145.112 69.4125 159.57 76.2885 168.628C78.2625 171.228 87.4685 176.688 88.1745 175.677C88.2755 175.533 90.8925 170.217 93.9895 163.863C100.07 151.394 107.678 139.416 116.389 128.597C121.552 122.185 121.769 121.698 120.031 120.422C113.77 115.826 99.7135 114.662 90.9845 118.018ZM261.657 150.442C258.248 154.071 258.417 159.43 262.039 162.545C265.868 165.838 270.114 165.638 273.76 161.992C276.88 158.872 277.395 156.121 275.52 152.599C272.666 147.241 265.685 146.155 261.657 150.442ZM330.138 159.37C324.745 164.762 328.549 173.915 336.183 173.915C341.06 173.915 344.683 170.292 344.683 165.415C344.683 157.781 335.53 153.977 330.138 159.37ZM367.851 180.061C361.245 183.331 358.183 188.669 358.183 196.915C358.183 202.492 358.626 204.23 360.934 207.718C364.427 212.997 370.031 215.915 376.675 215.915C386.182 215.915 392.95 210.866 395.23 202.076C399.499 185.62 383.161 172.482 367.851 180.061ZM63.1825 186.757C59.1325 189.233 57.8225 190.976 55.8335 196.534C54.5405 200.149 53.2365 201.765 50.2775 203.422C42.3695 207.849 41.6525 215.858 48.7295 220.713C53.6175 224.067 54.4505 226.873 52.3225 232.811C49.0915 241.826 50.7275 250.019 57.0075 256.279C61.0105 260.269 67.9695 263.473 69.9605 262.243C70.4825 261.921 71.8135 259.613 72.9185 257.114C74.4675 253.612 75.1255 249.04 75.7905 237.152C76.6845 221.154 78.3685 209.54 81.5805 197.218C83.3145 190.563 83.3325 189.913 81.8195 188.596C77.0375 184.436 68.3765 183.581 63.1825 186.757ZM122.183 188.577C114.259 192.754 110.239 199.546 110.909 207.625C111.762 217.908 119.965 225.419 130.183 225.271C146.271 225.039 154.787 207.046 144.957 194.056C140.136 187.685 128.97 184.999 122.183 188.577ZM192.571 189.415C187.444 192.201 186.538 199.664 190.853 203.569C193.472 205.939 199.894 205.939 202.513 203.569C206.909 199.59 205.898 192.112 200.592 189.368C197.151 187.589 195.917 187.596 192.571 189.415ZM373.075 193.432C371.24 195.267 370.738 196.553 371.222 198.182C372.572 202.728 376.552 204.096 380.46 201.358C383.235 199.415 383.337 195.569 380.683 192.915C378.031 190.263 376.114 190.393 373.075 193.432ZM126.138 202.37C123.346 205.161 123.474 208.306 126.475 210.665C131.627 214.715 138.483 207.859 134.433 202.707C132.074 199.706 128.929 199.578 126.138 202.37ZM294.138 215.37C290.697 218.81 290.876 223.262 294.606 226.992C300.361 232.747 308.683 229.285 308.683 221.135C308.683 213.489 299.613 209.894 294.138 215.37ZM230.523 232.802C218.222 240.602 219.032 259.549 231.933 265.794C243.522 271.404 256.337 265.537 259.645 253.107C261.914 244.582 256.402 234.04 248.007 230.848C242.87 228.895 235.36 229.734 230.523 232.802ZM349.138 239.37C343.745 244.762 347.549 253.915 355.183 253.915C360.06 253.915 363.683 250.292 363.683 245.415C363.683 237.781 354.53 233.977 349.138 239.37ZM238.083 243.68C237.478 244.084 236.419 245.484 235.731 246.79C234.662 248.817 234.765 249.549 236.431 251.79C237.505 253.234 239.323 254.555 240.472 254.726C243.007 255.105 246.683 251.666 246.683 248.915C246.683 244.928 241.206 241.595 238.083 243.68ZM153.138 254.37C149.815 257.692 149.747 263.687 152.997 266.741C157.942 271.385 167.683 267.914 167.683 261.508C167.683 253.234 158.688 248.819 153.138 254.37Z" fill="black"/>
</svg>
